%TF.GenerationSoftware,KiCad,Pcbnew,(5.1.7)-1*%
%TF.CreationDate,2021-09-05T16:50:27-04:00*%
%TF.ProjectId,future-controller,66757475-7265-42d6-936f-6e74726f6c6c,A*%
%TF.SameCoordinates,Original*%
%TF.FileFunction,Paste,Top*%
%TF.FilePolarity,Positive*%
%FSLAX46Y46*%
G04 Gerber Fmt 4.6, Leading zero omitted, Abs format (unit mm)*
G04 Created by KiCad (PCBNEW (5.1.7)-1) date 2021-09-05 16:50:27*
%MOMM*%
%LPD*%
G01*
G04 APERTURE LIST*
%ADD10R,0.950000X1.050000*%
%ADD11R,1.800000X1.100000*%
%ADD12R,2.000000X1.500000*%
%ADD13R,2.000000X3.800000*%
%ADD14R,1.100000X1.800000*%
G04 APERTURE END LIST*
D10*
%TO.C,Y2*%
X160909000Y-93323800D03*
X160909000Y-95173800D03*
X159459000Y-95173800D03*
X159459000Y-93323800D03*
%TD*%
%TO.C,Y1*%
X142150000Y-111846800D03*
X142150000Y-109996800D03*
X143600000Y-109996800D03*
X143600000Y-111846800D03*
%TD*%
%TO.C,C16*%
G36*
G01*
X172778600Y-98195800D02*
X173118600Y-98195800D01*
G75*
G02*
X173258600Y-98335800I0J-140000D01*
G01*
X173258600Y-98615800D01*
G75*
G02*
X173118600Y-98755800I-140000J0D01*
G01*
X172778600Y-98755800D01*
G75*
G02*
X172638600Y-98615800I0J140000D01*
G01*
X172638600Y-98335800D01*
G75*
G02*
X172778600Y-98195800I140000J0D01*
G01*
G37*
G36*
G01*
X172778600Y-97235800D02*
X173118600Y-97235800D01*
G75*
G02*
X173258600Y-97375800I0J-140000D01*
G01*
X173258600Y-97655800D01*
G75*
G02*
X173118600Y-97795800I-140000J0D01*
G01*
X172778600Y-97795800D01*
G75*
G02*
X172638600Y-97655800I0J140000D01*
G01*
X172638600Y-97375800D01*
G75*
G02*
X172778600Y-97235800I140000J0D01*
G01*
G37*
%TD*%
%TO.C,C15*%
G36*
G01*
X172778600Y-103423000D02*
X173118600Y-103423000D01*
G75*
G02*
X173258600Y-103563000I0J-140000D01*
G01*
X173258600Y-103843000D01*
G75*
G02*
X173118600Y-103983000I-140000J0D01*
G01*
X172778600Y-103983000D01*
G75*
G02*
X172638600Y-103843000I0J140000D01*
G01*
X172638600Y-103563000D01*
G75*
G02*
X172778600Y-103423000I140000J0D01*
G01*
G37*
G36*
G01*
X172778600Y-102463000D02*
X173118600Y-102463000D01*
G75*
G02*
X173258600Y-102603000I0J-140000D01*
G01*
X173258600Y-102883000D01*
G75*
G02*
X173118600Y-103023000I-140000J0D01*
G01*
X172778600Y-103023000D01*
G75*
G02*
X172638600Y-102883000I0J140000D01*
G01*
X172638600Y-102603000D01*
G75*
G02*
X172778600Y-102463000I140000J0D01*
G01*
G37*
%TD*%
%TO.C,C13*%
G36*
G01*
X173118600Y-95459000D02*
X172778600Y-95459000D01*
G75*
G02*
X172638600Y-95319000I0J140000D01*
G01*
X172638600Y-95039000D01*
G75*
G02*
X172778600Y-94899000I140000J0D01*
G01*
X173118600Y-94899000D01*
G75*
G02*
X173258600Y-95039000I0J-140000D01*
G01*
X173258600Y-95319000D01*
G75*
G02*
X173118600Y-95459000I-140000J0D01*
G01*
G37*
G36*
G01*
X173118600Y-96419000D02*
X172778600Y-96419000D01*
G75*
G02*
X172638600Y-96279000I0J140000D01*
G01*
X172638600Y-95999000D01*
G75*
G02*
X172778600Y-95859000I140000J0D01*
G01*
X173118600Y-95859000D01*
G75*
G02*
X173258600Y-95999000I0J-140000D01*
G01*
X173258600Y-96279000D01*
G75*
G02*
X173118600Y-96419000I-140000J0D01*
G01*
G37*
%TD*%
%TO.C,C12*%
G36*
G01*
X173118600Y-101697000D02*
X172778600Y-101697000D01*
G75*
G02*
X172638600Y-101557000I0J140000D01*
G01*
X172638600Y-101277000D01*
G75*
G02*
X172778600Y-101137000I140000J0D01*
G01*
X173118600Y-101137000D01*
G75*
G02*
X173258600Y-101277000I0J-140000D01*
G01*
X173258600Y-101557000D01*
G75*
G02*
X173118600Y-101697000I-140000J0D01*
G01*
G37*
G36*
G01*
X173118600Y-100737000D02*
X172778600Y-100737000D01*
G75*
G02*
X172638600Y-100597000I0J140000D01*
G01*
X172638600Y-100317000D01*
G75*
G02*
X172778600Y-100177000I140000J0D01*
G01*
X173118600Y-100177000D01*
G75*
G02*
X173258600Y-100317000I0J-140000D01*
G01*
X173258600Y-100597000D01*
G75*
G02*
X173118600Y-100737000I-140000J0D01*
G01*
G37*
%TD*%
D11*
%TO.C,RESET*%
X148668600Y-116001800D03*
X142468600Y-116001800D03*
X142468600Y-119701800D03*
X148668600Y-119701800D03*
%TD*%
%TO.C,C32*%
G36*
G01*
X157509400Y-94584400D02*
X158009400Y-94584400D01*
G75*
G02*
X158234400Y-94809400I0J-225000D01*
G01*
X158234400Y-95259400D01*
G75*
G02*
X158009400Y-95484400I-225000J0D01*
G01*
X157509400Y-95484400D01*
G75*
G02*
X157284400Y-95259400I0J225000D01*
G01*
X157284400Y-94809400D01*
G75*
G02*
X157509400Y-94584400I225000J0D01*
G01*
G37*
G36*
G01*
X157509400Y-93034400D02*
X158009400Y-93034400D01*
G75*
G02*
X158234400Y-93259400I0J-225000D01*
G01*
X158234400Y-93709400D01*
G75*
G02*
X158009400Y-93934400I-225000J0D01*
G01*
X157509400Y-93934400D01*
G75*
G02*
X157284400Y-93709400I0J225000D01*
G01*
X157284400Y-93259400D01*
G75*
G02*
X157509400Y-93034400I225000J0D01*
G01*
G37*
%TD*%
D12*
%TO.C,U1*%
X109727600Y-105497600D03*
X109727600Y-110097600D03*
X109727600Y-107797600D03*
D13*
X116027600Y-107797600D03*
%TD*%
%TO.C,U3*%
G36*
G01*
X162591800Y-96633800D02*
X162716800Y-96633800D01*
G75*
G02*
X162779300Y-96696300I0J-62500D01*
G01*
X162779300Y-97396300D01*
G75*
G02*
X162716800Y-97458800I-62500J0D01*
G01*
X162591800Y-97458800D01*
G75*
G02*
X162529300Y-97396300I0J62500D01*
G01*
X162529300Y-96696300D01*
G75*
G02*
X162591800Y-96633800I62500J0D01*
G01*
G37*
G36*
G01*
X162091800Y-96633800D02*
X162216800Y-96633800D01*
G75*
G02*
X162279300Y-96696300I0J-62500D01*
G01*
X162279300Y-97396300D01*
G75*
G02*
X162216800Y-97458800I-62500J0D01*
G01*
X162091800Y-97458800D01*
G75*
G02*
X162029300Y-97396300I0J62500D01*
G01*
X162029300Y-96696300D01*
G75*
G02*
X162091800Y-96633800I62500J0D01*
G01*
G37*
G36*
G01*
X161591800Y-96633800D02*
X161716800Y-96633800D01*
G75*
G02*
X161779300Y-96696300I0J-62500D01*
G01*
X161779300Y-97396300D01*
G75*
G02*
X161716800Y-97458800I-62500J0D01*
G01*
X161591800Y-97458800D01*
G75*
G02*
X161529300Y-97396300I0J62500D01*
G01*
X161529300Y-96696300D01*
G75*
G02*
X161591800Y-96633800I62500J0D01*
G01*
G37*
G36*
G01*
X161091800Y-96633800D02*
X161216800Y-96633800D01*
G75*
G02*
X161279300Y-96696300I0J-62500D01*
G01*
X161279300Y-97396300D01*
G75*
G02*
X161216800Y-97458800I-62500J0D01*
G01*
X161091800Y-97458800D01*
G75*
G02*
X161029300Y-97396300I0J62500D01*
G01*
X161029300Y-96696300D01*
G75*
G02*
X161091800Y-96633800I62500J0D01*
G01*
G37*
G36*
G01*
X160591800Y-96633800D02*
X160716800Y-96633800D01*
G75*
G02*
X160779300Y-96696300I0J-62500D01*
G01*
X160779300Y-97396300D01*
G75*
G02*
X160716800Y-97458800I-62500J0D01*
G01*
X160591800Y-97458800D01*
G75*
G02*
X160529300Y-97396300I0J62500D01*
G01*
X160529300Y-96696300D01*
G75*
G02*
X160591800Y-96633800I62500J0D01*
G01*
G37*
G36*
G01*
X160091800Y-96633800D02*
X160216800Y-96633800D01*
G75*
G02*
X160279300Y-96696300I0J-62500D01*
G01*
X160279300Y-97396300D01*
G75*
G02*
X160216800Y-97458800I-62500J0D01*
G01*
X160091800Y-97458800D01*
G75*
G02*
X160029300Y-97396300I0J62500D01*
G01*
X160029300Y-96696300D01*
G75*
G02*
X160091800Y-96633800I62500J0D01*
G01*
G37*
G36*
G01*
X159116800Y-97608800D02*
X159816800Y-97608800D01*
G75*
G02*
X159879300Y-97671300I0J-62500D01*
G01*
X159879300Y-97796300D01*
G75*
G02*
X159816800Y-97858800I-62500J0D01*
G01*
X159116800Y-97858800D01*
G75*
G02*
X159054300Y-97796300I0J62500D01*
G01*
X159054300Y-97671300D01*
G75*
G02*
X159116800Y-97608800I62500J0D01*
G01*
G37*
G36*
G01*
X159116800Y-98108800D02*
X159816800Y-98108800D01*
G75*
G02*
X159879300Y-98171300I0J-62500D01*
G01*
X159879300Y-98296300D01*
G75*
G02*
X159816800Y-98358800I-62500J0D01*
G01*
X159116800Y-98358800D01*
G75*
G02*
X159054300Y-98296300I0J62500D01*
G01*
X159054300Y-98171300D01*
G75*
G02*
X159116800Y-98108800I62500J0D01*
G01*
G37*
G36*
G01*
X159116800Y-98608800D02*
X159816800Y-98608800D01*
G75*
G02*
X159879300Y-98671300I0J-62500D01*
G01*
X159879300Y-98796300D01*
G75*
G02*
X159816800Y-98858800I-62500J0D01*
G01*
X159116800Y-98858800D01*
G75*
G02*
X159054300Y-98796300I0J62500D01*
G01*
X159054300Y-98671300D01*
G75*
G02*
X159116800Y-98608800I62500J0D01*
G01*
G37*
G36*
G01*
X159116800Y-99108800D02*
X159816800Y-99108800D01*
G75*
G02*
X159879300Y-99171300I0J-62500D01*
G01*
X159879300Y-99296300D01*
G75*
G02*
X159816800Y-99358800I-62500J0D01*
G01*
X159116800Y-99358800D01*
G75*
G02*
X159054300Y-99296300I0J62500D01*
G01*
X159054300Y-99171300D01*
G75*
G02*
X159116800Y-99108800I62500J0D01*
G01*
G37*
G36*
G01*
X159116800Y-99608800D02*
X159816800Y-99608800D01*
G75*
G02*
X159879300Y-99671300I0J-62500D01*
G01*
X159879300Y-99796300D01*
G75*
G02*
X159816800Y-99858800I-62500J0D01*
G01*
X159116800Y-99858800D01*
G75*
G02*
X159054300Y-99796300I0J62500D01*
G01*
X159054300Y-99671300D01*
G75*
G02*
X159116800Y-99608800I62500J0D01*
G01*
G37*
G36*
G01*
X159116800Y-100108800D02*
X159816800Y-100108800D01*
G75*
G02*
X159879300Y-100171300I0J-62500D01*
G01*
X159879300Y-100296300D01*
G75*
G02*
X159816800Y-100358800I-62500J0D01*
G01*
X159116800Y-100358800D01*
G75*
G02*
X159054300Y-100296300I0J62500D01*
G01*
X159054300Y-100171300D01*
G75*
G02*
X159116800Y-100108800I62500J0D01*
G01*
G37*
G36*
G01*
X160091800Y-100508800D02*
X160216800Y-100508800D01*
G75*
G02*
X160279300Y-100571300I0J-62500D01*
G01*
X160279300Y-101271300D01*
G75*
G02*
X160216800Y-101333800I-62500J0D01*
G01*
X160091800Y-101333800D01*
G75*
G02*
X160029300Y-101271300I0J62500D01*
G01*
X160029300Y-100571300D01*
G75*
G02*
X160091800Y-100508800I62500J0D01*
G01*
G37*
G36*
G01*
X160591800Y-100508800D02*
X160716800Y-100508800D01*
G75*
G02*
X160779300Y-100571300I0J-62500D01*
G01*
X160779300Y-101271300D01*
G75*
G02*
X160716800Y-101333800I-62500J0D01*
G01*
X160591800Y-101333800D01*
G75*
G02*
X160529300Y-101271300I0J62500D01*
G01*
X160529300Y-100571300D01*
G75*
G02*
X160591800Y-100508800I62500J0D01*
G01*
G37*
G36*
G01*
X161091800Y-100508800D02*
X161216800Y-100508800D01*
G75*
G02*
X161279300Y-100571300I0J-62500D01*
G01*
X161279300Y-101271300D01*
G75*
G02*
X161216800Y-101333800I-62500J0D01*
G01*
X161091800Y-101333800D01*
G75*
G02*
X161029300Y-101271300I0J62500D01*
G01*
X161029300Y-100571300D01*
G75*
G02*
X161091800Y-100508800I62500J0D01*
G01*
G37*
G36*
G01*
X161591800Y-100508800D02*
X161716800Y-100508800D01*
G75*
G02*
X161779300Y-100571300I0J-62500D01*
G01*
X161779300Y-101271300D01*
G75*
G02*
X161716800Y-101333800I-62500J0D01*
G01*
X161591800Y-101333800D01*
G75*
G02*
X161529300Y-101271300I0J62500D01*
G01*
X161529300Y-100571300D01*
G75*
G02*
X161591800Y-100508800I62500J0D01*
G01*
G37*
G36*
G01*
X162091800Y-100508800D02*
X162216800Y-100508800D01*
G75*
G02*
X162279300Y-100571300I0J-62500D01*
G01*
X162279300Y-101271300D01*
G75*
G02*
X162216800Y-101333800I-62500J0D01*
G01*
X162091800Y-101333800D01*
G75*
G02*
X162029300Y-101271300I0J62500D01*
G01*
X162029300Y-100571300D01*
G75*
G02*
X162091800Y-100508800I62500J0D01*
G01*
G37*
G36*
G01*
X162591800Y-100508800D02*
X162716800Y-100508800D01*
G75*
G02*
X162779300Y-100571300I0J-62500D01*
G01*
X162779300Y-101271300D01*
G75*
G02*
X162716800Y-101333800I-62500J0D01*
G01*
X162591800Y-101333800D01*
G75*
G02*
X162529300Y-101271300I0J62500D01*
G01*
X162529300Y-100571300D01*
G75*
G02*
X162591800Y-100508800I62500J0D01*
G01*
G37*
G36*
G01*
X162991800Y-100108800D02*
X163691800Y-100108800D01*
G75*
G02*
X163754300Y-100171300I0J-62500D01*
G01*
X163754300Y-100296300D01*
G75*
G02*
X163691800Y-100358800I-62500J0D01*
G01*
X162991800Y-100358800D01*
G75*
G02*
X162929300Y-100296300I0J62500D01*
G01*
X162929300Y-100171300D01*
G75*
G02*
X162991800Y-100108800I62500J0D01*
G01*
G37*
G36*
G01*
X162991800Y-99608800D02*
X163691800Y-99608800D01*
G75*
G02*
X163754300Y-99671300I0J-62500D01*
G01*
X163754300Y-99796300D01*
G75*
G02*
X163691800Y-99858800I-62500J0D01*
G01*
X162991800Y-99858800D01*
G75*
G02*
X162929300Y-99796300I0J62500D01*
G01*
X162929300Y-99671300D01*
G75*
G02*
X162991800Y-99608800I62500J0D01*
G01*
G37*
G36*
G01*
X162991800Y-99108800D02*
X163691800Y-99108800D01*
G75*
G02*
X163754300Y-99171300I0J-62500D01*
G01*
X163754300Y-99296300D01*
G75*
G02*
X163691800Y-99358800I-62500J0D01*
G01*
X162991800Y-99358800D01*
G75*
G02*
X162929300Y-99296300I0J62500D01*
G01*
X162929300Y-99171300D01*
G75*
G02*
X162991800Y-99108800I62500J0D01*
G01*
G37*
G36*
G01*
X162991800Y-98608800D02*
X163691800Y-98608800D01*
G75*
G02*
X163754300Y-98671300I0J-62500D01*
G01*
X163754300Y-98796300D01*
G75*
G02*
X163691800Y-98858800I-62500J0D01*
G01*
X162991800Y-98858800D01*
G75*
G02*
X162929300Y-98796300I0J62500D01*
G01*
X162929300Y-98671300D01*
G75*
G02*
X162991800Y-98608800I62500J0D01*
G01*
G37*
G36*
G01*
X162991800Y-98108800D02*
X163691800Y-98108800D01*
G75*
G02*
X163754300Y-98171300I0J-62500D01*
G01*
X163754300Y-98296300D01*
G75*
G02*
X163691800Y-98358800I-62500J0D01*
G01*
X162991800Y-98358800D01*
G75*
G02*
X162929300Y-98296300I0J62500D01*
G01*
X162929300Y-98171300D01*
G75*
G02*
X162991800Y-98108800I62500J0D01*
G01*
G37*
G36*
G01*
X162991800Y-97608800D02*
X163691800Y-97608800D01*
G75*
G02*
X163754300Y-97671300I0J-62500D01*
G01*
X163754300Y-97796300D01*
G75*
G02*
X163691800Y-97858800I-62500J0D01*
G01*
X162991800Y-97858800D01*
G75*
G02*
X162929300Y-97796300I0J62500D01*
G01*
X162929300Y-97671300D01*
G75*
G02*
X162991800Y-97608800I62500J0D01*
G01*
G37*
G36*
G01*
X161779299Y-97808800D02*
X162329301Y-97808800D01*
G75*
G02*
X162579300Y-98058799I0J-249999D01*
G01*
X162579300Y-98608801D01*
G75*
G02*
X162329301Y-98858800I-249999J0D01*
G01*
X161779299Y-98858800D01*
G75*
G02*
X161529300Y-98608801I0J249999D01*
G01*
X161529300Y-98058799D01*
G75*
G02*
X161779299Y-97808800I249999J0D01*
G01*
G37*
G36*
G01*
X160479299Y-97808800D02*
X161029301Y-97808800D01*
G75*
G02*
X161279300Y-98058799I0J-249999D01*
G01*
X161279300Y-98608801D01*
G75*
G02*
X161029301Y-98858800I-249999J0D01*
G01*
X160479299Y-98858800D01*
G75*
G02*
X160229300Y-98608801I0J249999D01*
G01*
X160229300Y-98058799D01*
G75*
G02*
X160479299Y-97808800I249999J0D01*
G01*
G37*
G36*
G01*
X161779299Y-99108800D02*
X162329301Y-99108800D01*
G75*
G02*
X162579300Y-99358799I0J-249999D01*
G01*
X162579300Y-99908801D01*
G75*
G02*
X162329301Y-100158800I-249999J0D01*
G01*
X161779299Y-100158800D01*
G75*
G02*
X161529300Y-99908801I0J249999D01*
G01*
X161529300Y-99358799D01*
G75*
G02*
X161779299Y-99108800I249999J0D01*
G01*
G37*
G36*
G01*
X160479299Y-99108800D02*
X161029301Y-99108800D01*
G75*
G02*
X161279300Y-99358799I0J-249999D01*
G01*
X161279300Y-99908801D01*
G75*
G02*
X161029301Y-100158800I-249999J0D01*
G01*
X160479299Y-100158800D01*
G75*
G02*
X160229300Y-99908801I0J249999D01*
G01*
X160229300Y-99358799D01*
G75*
G02*
X160479299Y-99108800I249999J0D01*
G01*
G37*
%TD*%
%TO.C,U2*%
G36*
G01*
X137102400Y-108017600D02*
X136952400Y-108017600D01*
G75*
G02*
X136877400Y-107942600I0J75000D01*
G01*
X136877400Y-106492600D01*
G75*
G02*
X136952400Y-106417600I75000J0D01*
G01*
X137102400Y-106417600D01*
G75*
G02*
X137177400Y-106492600I0J-75000D01*
G01*
X137177400Y-107942600D01*
G75*
G02*
X137102400Y-108017600I-75000J0D01*
G01*
G37*
G36*
G01*
X137602400Y-108017600D02*
X137452400Y-108017600D01*
G75*
G02*
X137377400Y-107942600I0J75000D01*
G01*
X137377400Y-106492600D01*
G75*
G02*
X137452400Y-106417600I75000J0D01*
G01*
X137602400Y-106417600D01*
G75*
G02*
X137677400Y-106492600I0J-75000D01*
G01*
X137677400Y-107942600D01*
G75*
G02*
X137602400Y-108017600I-75000J0D01*
G01*
G37*
G36*
G01*
X138102400Y-108017600D02*
X137952400Y-108017600D01*
G75*
G02*
X137877400Y-107942600I0J75000D01*
G01*
X137877400Y-106492600D01*
G75*
G02*
X137952400Y-106417600I75000J0D01*
G01*
X138102400Y-106417600D01*
G75*
G02*
X138177400Y-106492600I0J-75000D01*
G01*
X138177400Y-107942600D01*
G75*
G02*
X138102400Y-108017600I-75000J0D01*
G01*
G37*
G36*
G01*
X138602400Y-108017600D02*
X138452400Y-108017600D01*
G75*
G02*
X138377400Y-107942600I0J75000D01*
G01*
X138377400Y-106492600D01*
G75*
G02*
X138452400Y-106417600I75000J0D01*
G01*
X138602400Y-106417600D01*
G75*
G02*
X138677400Y-106492600I0J-75000D01*
G01*
X138677400Y-107942600D01*
G75*
G02*
X138602400Y-108017600I-75000J0D01*
G01*
G37*
G36*
G01*
X139102400Y-108017600D02*
X138952400Y-108017600D01*
G75*
G02*
X138877400Y-107942600I0J75000D01*
G01*
X138877400Y-106492600D01*
G75*
G02*
X138952400Y-106417600I75000J0D01*
G01*
X139102400Y-106417600D01*
G75*
G02*
X139177400Y-106492600I0J-75000D01*
G01*
X139177400Y-107942600D01*
G75*
G02*
X139102400Y-108017600I-75000J0D01*
G01*
G37*
G36*
G01*
X139602400Y-108017600D02*
X139452400Y-108017600D01*
G75*
G02*
X139377400Y-107942600I0J75000D01*
G01*
X139377400Y-106492600D01*
G75*
G02*
X139452400Y-106417600I75000J0D01*
G01*
X139602400Y-106417600D01*
G75*
G02*
X139677400Y-106492600I0J-75000D01*
G01*
X139677400Y-107942600D01*
G75*
G02*
X139602400Y-108017600I-75000J0D01*
G01*
G37*
G36*
G01*
X140102400Y-108017600D02*
X139952400Y-108017600D01*
G75*
G02*
X139877400Y-107942600I0J75000D01*
G01*
X139877400Y-106492600D01*
G75*
G02*
X139952400Y-106417600I75000J0D01*
G01*
X140102400Y-106417600D01*
G75*
G02*
X140177400Y-106492600I0J-75000D01*
G01*
X140177400Y-107942600D01*
G75*
G02*
X140102400Y-108017600I-75000J0D01*
G01*
G37*
G36*
G01*
X140602400Y-108017600D02*
X140452400Y-108017600D01*
G75*
G02*
X140377400Y-107942600I0J75000D01*
G01*
X140377400Y-106492600D01*
G75*
G02*
X140452400Y-106417600I75000J0D01*
G01*
X140602400Y-106417600D01*
G75*
G02*
X140677400Y-106492600I0J-75000D01*
G01*
X140677400Y-107942600D01*
G75*
G02*
X140602400Y-108017600I-75000J0D01*
G01*
G37*
G36*
G01*
X141102400Y-108017600D02*
X140952400Y-108017600D01*
G75*
G02*
X140877400Y-107942600I0J75000D01*
G01*
X140877400Y-106492600D01*
G75*
G02*
X140952400Y-106417600I75000J0D01*
G01*
X141102400Y-106417600D01*
G75*
G02*
X141177400Y-106492600I0J-75000D01*
G01*
X141177400Y-107942600D01*
G75*
G02*
X141102400Y-108017600I-75000J0D01*
G01*
G37*
G36*
G01*
X141602400Y-108017600D02*
X141452400Y-108017600D01*
G75*
G02*
X141377400Y-107942600I0J75000D01*
G01*
X141377400Y-106492600D01*
G75*
G02*
X141452400Y-106417600I75000J0D01*
G01*
X141602400Y-106417600D01*
G75*
G02*
X141677400Y-106492600I0J-75000D01*
G01*
X141677400Y-107942600D01*
G75*
G02*
X141602400Y-108017600I-75000J0D01*
G01*
G37*
G36*
G01*
X142102400Y-108017600D02*
X141952400Y-108017600D01*
G75*
G02*
X141877400Y-107942600I0J75000D01*
G01*
X141877400Y-106492600D01*
G75*
G02*
X141952400Y-106417600I75000J0D01*
G01*
X142102400Y-106417600D01*
G75*
G02*
X142177400Y-106492600I0J-75000D01*
G01*
X142177400Y-107942600D01*
G75*
G02*
X142102400Y-108017600I-75000J0D01*
G01*
G37*
G36*
G01*
X142602400Y-108017600D02*
X142452400Y-108017600D01*
G75*
G02*
X142377400Y-107942600I0J75000D01*
G01*
X142377400Y-106492600D01*
G75*
G02*
X142452400Y-106417600I75000J0D01*
G01*
X142602400Y-106417600D01*
G75*
G02*
X142677400Y-106492600I0J-75000D01*
G01*
X142677400Y-107942600D01*
G75*
G02*
X142602400Y-108017600I-75000J0D01*
G01*
G37*
G36*
G01*
X143102400Y-108017600D02*
X142952400Y-108017600D01*
G75*
G02*
X142877400Y-107942600I0J75000D01*
G01*
X142877400Y-106492600D01*
G75*
G02*
X142952400Y-106417600I75000J0D01*
G01*
X143102400Y-106417600D01*
G75*
G02*
X143177400Y-106492600I0J-75000D01*
G01*
X143177400Y-107942600D01*
G75*
G02*
X143102400Y-108017600I-75000J0D01*
G01*
G37*
G36*
G01*
X143602400Y-108017600D02*
X143452400Y-108017600D01*
G75*
G02*
X143377400Y-107942600I0J75000D01*
G01*
X143377400Y-106492600D01*
G75*
G02*
X143452400Y-106417600I75000J0D01*
G01*
X143602400Y-106417600D01*
G75*
G02*
X143677400Y-106492600I0J-75000D01*
G01*
X143677400Y-107942600D01*
G75*
G02*
X143602400Y-108017600I-75000J0D01*
G01*
G37*
G36*
G01*
X144102400Y-108017600D02*
X143952400Y-108017600D01*
G75*
G02*
X143877400Y-107942600I0J75000D01*
G01*
X143877400Y-106492600D01*
G75*
G02*
X143952400Y-106417600I75000J0D01*
G01*
X144102400Y-106417600D01*
G75*
G02*
X144177400Y-106492600I0J-75000D01*
G01*
X144177400Y-107942600D01*
G75*
G02*
X144102400Y-108017600I-75000J0D01*
G01*
G37*
G36*
G01*
X144602400Y-108017600D02*
X144452400Y-108017600D01*
G75*
G02*
X144377400Y-107942600I0J75000D01*
G01*
X144377400Y-106492600D01*
G75*
G02*
X144452400Y-106417600I75000J0D01*
G01*
X144602400Y-106417600D01*
G75*
G02*
X144677400Y-106492600I0J-75000D01*
G01*
X144677400Y-107942600D01*
G75*
G02*
X144602400Y-108017600I-75000J0D01*
G01*
G37*
G36*
G01*
X145102400Y-108017600D02*
X144952400Y-108017600D01*
G75*
G02*
X144877400Y-107942600I0J75000D01*
G01*
X144877400Y-106492600D01*
G75*
G02*
X144952400Y-106417600I75000J0D01*
G01*
X145102400Y-106417600D01*
G75*
G02*
X145177400Y-106492600I0J-75000D01*
G01*
X145177400Y-107942600D01*
G75*
G02*
X145102400Y-108017600I-75000J0D01*
G01*
G37*
G36*
G01*
X145602400Y-108017600D02*
X145452400Y-108017600D01*
G75*
G02*
X145377400Y-107942600I0J75000D01*
G01*
X145377400Y-106492600D01*
G75*
G02*
X145452400Y-106417600I75000J0D01*
G01*
X145602400Y-106417600D01*
G75*
G02*
X145677400Y-106492600I0J-75000D01*
G01*
X145677400Y-107942600D01*
G75*
G02*
X145602400Y-108017600I-75000J0D01*
G01*
G37*
G36*
G01*
X146102400Y-108017600D02*
X145952400Y-108017600D01*
G75*
G02*
X145877400Y-107942600I0J75000D01*
G01*
X145877400Y-106492600D01*
G75*
G02*
X145952400Y-106417600I75000J0D01*
G01*
X146102400Y-106417600D01*
G75*
G02*
X146177400Y-106492600I0J-75000D01*
G01*
X146177400Y-107942600D01*
G75*
G02*
X146102400Y-108017600I-75000J0D01*
G01*
G37*
G36*
G01*
X146602400Y-108017600D02*
X146452400Y-108017600D01*
G75*
G02*
X146377400Y-107942600I0J75000D01*
G01*
X146377400Y-106492600D01*
G75*
G02*
X146452400Y-106417600I75000J0D01*
G01*
X146602400Y-106417600D01*
G75*
G02*
X146677400Y-106492600I0J-75000D01*
G01*
X146677400Y-107942600D01*
G75*
G02*
X146602400Y-108017600I-75000J0D01*
G01*
G37*
G36*
G01*
X147102400Y-108017600D02*
X146952400Y-108017600D01*
G75*
G02*
X146877400Y-107942600I0J75000D01*
G01*
X146877400Y-106492600D01*
G75*
G02*
X146952400Y-106417600I75000J0D01*
G01*
X147102400Y-106417600D01*
G75*
G02*
X147177400Y-106492600I0J-75000D01*
G01*
X147177400Y-107942600D01*
G75*
G02*
X147102400Y-108017600I-75000J0D01*
G01*
G37*
G36*
G01*
X147602400Y-108017600D02*
X147452400Y-108017600D01*
G75*
G02*
X147377400Y-107942600I0J75000D01*
G01*
X147377400Y-106492600D01*
G75*
G02*
X147452400Y-106417600I75000J0D01*
G01*
X147602400Y-106417600D01*
G75*
G02*
X147677400Y-106492600I0J-75000D01*
G01*
X147677400Y-107942600D01*
G75*
G02*
X147602400Y-108017600I-75000J0D01*
G01*
G37*
G36*
G01*
X148102400Y-108017600D02*
X147952400Y-108017600D01*
G75*
G02*
X147877400Y-107942600I0J75000D01*
G01*
X147877400Y-106492600D01*
G75*
G02*
X147952400Y-106417600I75000J0D01*
G01*
X148102400Y-106417600D01*
G75*
G02*
X148177400Y-106492600I0J-75000D01*
G01*
X148177400Y-107942600D01*
G75*
G02*
X148102400Y-108017600I-75000J0D01*
G01*
G37*
G36*
G01*
X148602400Y-108017600D02*
X148452400Y-108017600D01*
G75*
G02*
X148377400Y-107942600I0J75000D01*
G01*
X148377400Y-106492600D01*
G75*
G02*
X148452400Y-106417600I75000J0D01*
G01*
X148602400Y-106417600D01*
G75*
G02*
X148677400Y-106492600I0J-75000D01*
G01*
X148677400Y-107942600D01*
G75*
G02*
X148602400Y-108017600I-75000J0D01*
G01*
G37*
G36*
G01*
X149102400Y-108017600D02*
X148952400Y-108017600D01*
G75*
G02*
X148877400Y-107942600I0J75000D01*
G01*
X148877400Y-106492600D01*
G75*
G02*
X148952400Y-106417600I75000J0D01*
G01*
X149102400Y-106417600D01*
G75*
G02*
X149177400Y-106492600I0J-75000D01*
G01*
X149177400Y-107942600D01*
G75*
G02*
X149102400Y-108017600I-75000J0D01*
G01*
G37*
G36*
G01*
X151427400Y-105692600D02*
X149977400Y-105692600D01*
G75*
G02*
X149902400Y-105617600I0J75000D01*
G01*
X149902400Y-105467600D01*
G75*
G02*
X149977400Y-105392600I75000J0D01*
G01*
X151427400Y-105392600D01*
G75*
G02*
X151502400Y-105467600I0J-75000D01*
G01*
X151502400Y-105617600D01*
G75*
G02*
X151427400Y-105692600I-75000J0D01*
G01*
G37*
G36*
G01*
X151427400Y-105192600D02*
X149977400Y-105192600D01*
G75*
G02*
X149902400Y-105117600I0J75000D01*
G01*
X149902400Y-104967600D01*
G75*
G02*
X149977400Y-104892600I75000J0D01*
G01*
X151427400Y-104892600D01*
G75*
G02*
X151502400Y-104967600I0J-75000D01*
G01*
X151502400Y-105117600D01*
G75*
G02*
X151427400Y-105192600I-75000J0D01*
G01*
G37*
G36*
G01*
X151427400Y-104692600D02*
X149977400Y-104692600D01*
G75*
G02*
X149902400Y-104617600I0J75000D01*
G01*
X149902400Y-104467600D01*
G75*
G02*
X149977400Y-104392600I75000J0D01*
G01*
X151427400Y-104392600D01*
G75*
G02*
X151502400Y-104467600I0J-75000D01*
G01*
X151502400Y-104617600D01*
G75*
G02*
X151427400Y-104692600I-75000J0D01*
G01*
G37*
G36*
G01*
X151427400Y-104192600D02*
X149977400Y-104192600D01*
G75*
G02*
X149902400Y-104117600I0J75000D01*
G01*
X149902400Y-103967600D01*
G75*
G02*
X149977400Y-103892600I75000J0D01*
G01*
X151427400Y-103892600D01*
G75*
G02*
X151502400Y-103967600I0J-75000D01*
G01*
X151502400Y-104117600D01*
G75*
G02*
X151427400Y-104192600I-75000J0D01*
G01*
G37*
G36*
G01*
X151427400Y-103692600D02*
X149977400Y-103692600D01*
G75*
G02*
X149902400Y-103617600I0J75000D01*
G01*
X149902400Y-103467600D01*
G75*
G02*
X149977400Y-103392600I75000J0D01*
G01*
X151427400Y-103392600D01*
G75*
G02*
X151502400Y-103467600I0J-75000D01*
G01*
X151502400Y-103617600D01*
G75*
G02*
X151427400Y-103692600I-75000J0D01*
G01*
G37*
G36*
G01*
X151427400Y-103192600D02*
X149977400Y-103192600D01*
G75*
G02*
X149902400Y-103117600I0J75000D01*
G01*
X149902400Y-102967600D01*
G75*
G02*
X149977400Y-102892600I75000J0D01*
G01*
X151427400Y-102892600D01*
G75*
G02*
X151502400Y-102967600I0J-75000D01*
G01*
X151502400Y-103117600D01*
G75*
G02*
X151427400Y-103192600I-75000J0D01*
G01*
G37*
G36*
G01*
X151427400Y-102692600D02*
X149977400Y-102692600D01*
G75*
G02*
X149902400Y-102617600I0J75000D01*
G01*
X149902400Y-102467600D01*
G75*
G02*
X149977400Y-102392600I75000J0D01*
G01*
X151427400Y-102392600D01*
G75*
G02*
X151502400Y-102467600I0J-75000D01*
G01*
X151502400Y-102617600D01*
G75*
G02*
X151427400Y-102692600I-75000J0D01*
G01*
G37*
G36*
G01*
X151427400Y-102192600D02*
X149977400Y-102192600D01*
G75*
G02*
X149902400Y-102117600I0J75000D01*
G01*
X149902400Y-101967600D01*
G75*
G02*
X149977400Y-101892600I75000J0D01*
G01*
X151427400Y-101892600D01*
G75*
G02*
X151502400Y-101967600I0J-75000D01*
G01*
X151502400Y-102117600D01*
G75*
G02*
X151427400Y-102192600I-75000J0D01*
G01*
G37*
G36*
G01*
X151427400Y-101692600D02*
X149977400Y-101692600D01*
G75*
G02*
X149902400Y-101617600I0J75000D01*
G01*
X149902400Y-101467600D01*
G75*
G02*
X149977400Y-101392600I75000J0D01*
G01*
X151427400Y-101392600D01*
G75*
G02*
X151502400Y-101467600I0J-75000D01*
G01*
X151502400Y-101617600D01*
G75*
G02*
X151427400Y-101692600I-75000J0D01*
G01*
G37*
G36*
G01*
X151427400Y-101192600D02*
X149977400Y-101192600D01*
G75*
G02*
X149902400Y-101117600I0J75000D01*
G01*
X149902400Y-100967600D01*
G75*
G02*
X149977400Y-100892600I75000J0D01*
G01*
X151427400Y-100892600D01*
G75*
G02*
X151502400Y-100967600I0J-75000D01*
G01*
X151502400Y-101117600D01*
G75*
G02*
X151427400Y-101192600I-75000J0D01*
G01*
G37*
G36*
G01*
X151427400Y-100692600D02*
X149977400Y-100692600D01*
G75*
G02*
X149902400Y-100617600I0J75000D01*
G01*
X149902400Y-100467600D01*
G75*
G02*
X149977400Y-100392600I75000J0D01*
G01*
X151427400Y-100392600D01*
G75*
G02*
X151502400Y-100467600I0J-75000D01*
G01*
X151502400Y-100617600D01*
G75*
G02*
X151427400Y-100692600I-75000J0D01*
G01*
G37*
G36*
G01*
X151427400Y-100192600D02*
X149977400Y-100192600D01*
G75*
G02*
X149902400Y-100117600I0J75000D01*
G01*
X149902400Y-99967600D01*
G75*
G02*
X149977400Y-99892600I75000J0D01*
G01*
X151427400Y-99892600D01*
G75*
G02*
X151502400Y-99967600I0J-75000D01*
G01*
X151502400Y-100117600D01*
G75*
G02*
X151427400Y-100192600I-75000J0D01*
G01*
G37*
G36*
G01*
X151427400Y-99692600D02*
X149977400Y-99692600D01*
G75*
G02*
X149902400Y-99617600I0J75000D01*
G01*
X149902400Y-99467600D01*
G75*
G02*
X149977400Y-99392600I75000J0D01*
G01*
X151427400Y-99392600D01*
G75*
G02*
X151502400Y-99467600I0J-75000D01*
G01*
X151502400Y-99617600D01*
G75*
G02*
X151427400Y-99692600I-75000J0D01*
G01*
G37*
G36*
G01*
X151427400Y-99192600D02*
X149977400Y-99192600D01*
G75*
G02*
X149902400Y-99117600I0J75000D01*
G01*
X149902400Y-98967600D01*
G75*
G02*
X149977400Y-98892600I75000J0D01*
G01*
X151427400Y-98892600D01*
G75*
G02*
X151502400Y-98967600I0J-75000D01*
G01*
X151502400Y-99117600D01*
G75*
G02*
X151427400Y-99192600I-75000J0D01*
G01*
G37*
G36*
G01*
X151427400Y-98692600D02*
X149977400Y-98692600D01*
G75*
G02*
X149902400Y-98617600I0J75000D01*
G01*
X149902400Y-98467600D01*
G75*
G02*
X149977400Y-98392600I75000J0D01*
G01*
X151427400Y-98392600D01*
G75*
G02*
X151502400Y-98467600I0J-75000D01*
G01*
X151502400Y-98617600D01*
G75*
G02*
X151427400Y-98692600I-75000J0D01*
G01*
G37*
G36*
G01*
X151427400Y-98192600D02*
X149977400Y-98192600D01*
G75*
G02*
X149902400Y-98117600I0J75000D01*
G01*
X149902400Y-97967600D01*
G75*
G02*
X149977400Y-97892600I75000J0D01*
G01*
X151427400Y-97892600D01*
G75*
G02*
X151502400Y-97967600I0J-75000D01*
G01*
X151502400Y-98117600D01*
G75*
G02*
X151427400Y-98192600I-75000J0D01*
G01*
G37*
G36*
G01*
X151427400Y-97692600D02*
X149977400Y-97692600D01*
G75*
G02*
X149902400Y-97617600I0J75000D01*
G01*
X149902400Y-97467600D01*
G75*
G02*
X149977400Y-97392600I75000J0D01*
G01*
X151427400Y-97392600D01*
G75*
G02*
X151502400Y-97467600I0J-75000D01*
G01*
X151502400Y-97617600D01*
G75*
G02*
X151427400Y-97692600I-75000J0D01*
G01*
G37*
G36*
G01*
X151427400Y-97192600D02*
X149977400Y-97192600D01*
G75*
G02*
X149902400Y-97117600I0J75000D01*
G01*
X149902400Y-96967600D01*
G75*
G02*
X149977400Y-96892600I75000J0D01*
G01*
X151427400Y-96892600D01*
G75*
G02*
X151502400Y-96967600I0J-75000D01*
G01*
X151502400Y-97117600D01*
G75*
G02*
X151427400Y-97192600I-75000J0D01*
G01*
G37*
G36*
G01*
X151427400Y-96692600D02*
X149977400Y-96692600D01*
G75*
G02*
X149902400Y-96617600I0J75000D01*
G01*
X149902400Y-96467600D01*
G75*
G02*
X149977400Y-96392600I75000J0D01*
G01*
X151427400Y-96392600D01*
G75*
G02*
X151502400Y-96467600I0J-75000D01*
G01*
X151502400Y-96617600D01*
G75*
G02*
X151427400Y-96692600I-75000J0D01*
G01*
G37*
G36*
G01*
X151427400Y-96192600D02*
X149977400Y-96192600D01*
G75*
G02*
X149902400Y-96117600I0J75000D01*
G01*
X149902400Y-95967600D01*
G75*
G02*
X149977400Y-95892600I75000J0D01*
G01*
X151427400Y-95892600D01*
G75*
G02*
X151502400Y-95967600I0J-75000D01*
G01*
X151502400Y-96117600D01*
G75*
G02*
X151427400Y-96192600I-75000J0D01*
G01*
G37*
G36*
G01*
X151427400Y-95692600D02*
X149977400Y-95692600D01*
G75*
G02*
X149902400Y-95617600I0J75000D01*
G01*
X149902400Y-95467600D01*
G75*
G02*
X149977400Y-95392600I75000J0D01*
G01*
X151427400Y-95392600D01*
G75*
G02*
X151502400Y-95467600I0J-75000D01*
G01*
X151502400Y-95617600D01*
G75*
G02*
X151427400Y-95692600I-75000J0D01*
G01*
G37*
G36*
G01*
X151427400Y-95192600D02*
X149977400Y-95192600D01*
G75*
G02*
X149902400Y-95117600I0J75000D01*
G01*
X149902400Y-94967600D01*
G75*
G02*
X149977400Y-94892600I75000J0D01*
G01*
X151427400Y-94892600D01*
G75*
G02*
X151502400Y-94967600I0J-75000D01*
G01*
X151502400Y-95117600D01*
G75*
G02*
X151427400Y-95192600I-75000J0D01*
G01*
G37*
G36*
G01*
X151427400Y-94692600D02*
X149977400Y-94692600D01*
G75*
G02*
X149902400Y-94617600I0J75000D01*
G01*
X149902400Y-94467600D01*
G75*
G02*
X149977400Y-94392600I75000J0D01*
G01*
X151427400Y-94392600D01*
G75*
G02*
X151502400Y-94467600I0J-75000D01*
G01*
X151502400Y-94617600D01*
G75*
G02*
X151427400Y-94692600I-75000J0D01*
G01*
G37*
G36*
G01*
X151427400Y-94192600D02*
X149977400Y-94192600D01*
G75*
G02*
X149902400Y-94117600I0J75000D01*
G01*
X149902400Y-93967600D01*
G75*
G02*
X149977400Y-93892600I75000J0D01*
G01*
X151427400Y-93892600D01*
G75*
G02*
X151502400Y-93967600I0J-75000D01*
G01*
X151502400Y-94117600D01*
G75*
G02*
X151427400Y-94192600I-75000J0D01*
G01*
G37*
G36*
G01*
X151427400Y-93692600D02*
X149977400Y-93692600D01*
G75*
G02*
X149902400Y-93617600I0J75000D01*
G01*
X149902400Y-93467600D01*
G75*
G02*
X149977400Y-93392600I75000J0D01*
G01*
X151427400Y-93392600D01*
G75*
G02*
X151502400Y-93467600I0J-75000D01*
G01*
X151502400Y-93617600D01*
G75*
G02*
X151427400Y-93692600I-75000J0D01*
G01*
G37*
G36*
G01*
X149102400Y-92667600D02*
X148952400Y-92667600D01*
G75*
G02*
X148877400Y-92592600I0J75000D01*
G01*
X148877400Y-91142600D01*
G75*
G02*
X148952400Y-91067600I75000J0D01*
G01*
X149102400Y-91067600D01*
G75*
G02*
X149177400Y-91142600I0J-75000D01*
G01*
X149177400Y-92592600D01*
G75*
G02*
X149102400Y-92667600I-75000J0D01*
G01*
G37*
G36*
G01*
X148602400Y-92667600D02*
X148452400Y-92667600D01*
G75*
G02*
X148377400Y-92592600I0J75000D01*
G01*
X148377400Y-91142600D01*
G75*
G02*
X148452400Y-91067600I75000J0D01*
G01*
X148602400Y-91067600D01*
G75*
G02*
X148677400Y-91142600I0J-75000D01*
G01*
X148677400Y-92592600D01*
G75*
G02*
X148602400Y-92667600I-75000J0D01*
G01*
G37*
G36*
G01*
X148102400Y-92667600D02*
X147952400Y-92667600D01*
G75*
G02*
X147877400Y-92592600I0J75000D01*
G01*
X147877400Y-91142600D01*
G75*
G02*
X147952400Y-91067600I75000J0D01*
G01*
X148102400Y-91067600D01*
G75*
G02*
X148177400Y-91142600I0J-75000D01*
G01*
X148177400Y-92592600D01*
G75*
G02*
X148102400Y-92667600I-75000J0D01*
G01*
G37*
G36*
G01*
X147602400Y-92667600D02*
X147452400Y-92667600D01*
G75*
G02*
X147377400Y-92592600I0J75000D01*
G01*
X147377400Y-91142600D01*
G75*
G02*
X147452400Y-91067600I75000J0D01*
G01*
X147602400Y-91067600D01*
G75*
G02*
X147677400Y-91142600I0J-75000D01*
G01*
X147677400Y-92592600D01*
G75*
G02*
X147602400Y-92667600I-75000J0D01*
G01*
G37*
G36*
G01*
X147102400Y-92667600D02*
X146952400Y-92667600D01*
G75*
G02*
X146877400Y-92592600I0J75000D01*
G01*
X146877400Y-91142600D01*
G75*
G02*
X146952400Y-91067600I75000J0D01*
G01*
X147102400Y-91067600D01*
G75*
G02*
X147177400Y-91142600I0J-75000D01*
G01*
X147177400Y-92592600D01*
G75*
G02*
X147102400Y-92667600I-75000J0D01*
G01*
G37*
G36*
G01*
X146602400Y-92667600D02*
X146452400Y-92667600D01*
G75*
G02*
X146377400Y-92592600I0J75000D01*
G01*
X146377400Y-91142600D01*
G75*
G02*
X146452400Y-91067600I75000J0D01*
G01*
X146602400Y-91067600D01*
G75*
G02*
X146677400Y-91142600I0J-75000D01*
G01*
X146677400Y-92592600D01*
G75*
G02*
X146602400Y-92667600I-75000J0D01*
G01*
G37*
G36*
G01*
X146102400Y-92667600D02*
X145952400Y-92667600D01*
G75*
G02*
X145877400Y-92592600I0J75000D01*
G01*
X145877400Y-91142600D01*
G75*
G02*
X145952400Y-91067600I75000J0D01*
G01*
X146102400Y-91067600D01*
G75*
G02*
X146177400Y-91142600I0J-75000D01*
G01*
X146177400Y-92592600D01*
G75*
G02*
X146102400Y-92667600I-75000J0D01*
G01*
G37*
G36*
G01*
X145602400Y-92667600D02*
X145452400Y-92667600D01*
G75*
G02*
X145377400Y-92592600I0J75000D01*
G01*
X145377400Y-91142600D01*
G75*
G02*
X145452400Y-91067600I75000J0D01*
G01*
X145602400Y-91067600D01*
G75*
G02*
X145677400Y-91142600I0J-75000D01*
G01*
X145677400Y-92592600D01*
G75*
G02*
X145602400Y-92667600I-75000J0D01*
G01*
G37*
G36*
G01*
X145102400Y-92667600D02*
X144952400Y-92667600D01*
G75*
G02*
X144877400Y-92592600I0J75000D01*
G01*
X144877400Y-91142600D01*
G75*
G02*
X144952400Y-91067600I75000J0D01*
G01*
X145102400Y-91067600D01*
G75*
G02*
X145177400Y-91142600I0J-75000D01*
G01*
X145177400Y-92592600D01*
G75*
G02*
X145102400Y-92667600I-75000J0D01*
G01*
G37*
G36*
G01*
X144602400Y-92667600D02*
X144452400Y-92667600D01*
G75*
G02*
X144377400Y-92592600I0J75000D01*
G01*
X144377400Y-91142600D01*
G75*
G02*
X144452400Y-91067600I75000J0D01*
G01*
X144602400Y-91067600D01*
G75*
G02*
X144677400Y-91142600I0J-75000D01*
G01*
X144677400Y-92592600D01*
G75*
G02*
X144602400Y-92667600I-75000J0D01*
G01*
G37*
G36*
G01*
X144102400Y-92667600D02*
X143952400Y-92667600D01*
G75*
G02*
X143877400Y-92592600I0J75000D01*
G01*
X143877400Y-91142600D01*
G75*
G02*
X143952400Y-91067600I75000J0D01*
G01*
X144102400Y-91067600D01*
G75*
G02*
X144177400Y-91142600I0J-75000D01*
G01*
X144177400Y-92592600D01*
G75*
G02*
X144102400Y-92667600I-75000J0D01*
G01*
G37*
G36*
G01*
X143602400Y-92667600D02*
X143452400Y-92667600D01*
G75*
G02*
X143377400Y-92592600I0J75000D01*
G01*
X143377400Y-91142600D01*
G75*
G02*
X143452400Y-91067600I75000J0D01*
G01*
X143602400Y-91067600D01*
G75*
G02*
X143677400Y-91142600I0J-75000D01*
G01*
X143677400Y-92592600D01*
G75*
G02*
X143602400Y-92667600I-75000J0D01*
G01*
G37*
G36*
G01*
X143102400Y-92667600D02*
X142952400Y-92667600D01*
G75*
G02*
X142877400Y-92592600I0J75000D01*
G01*
X142877400Y-91142600D01*
G75*
G02*
X142952400Y-91067600I75000J0D01*
G01*
X143102400Y-91067600D01*
G75*
G02*
X143177400Y-91142600I0J-75000D01*
G01*
X143177400Y-92592600D01*
G75*
G02*
X143102400Y-92667600I-75000J0D01*
G01*
G37*
G36*
G01*
X142602400Y-92667600D02*
X142452400Y-92667600D01*
G75*
G02*
X142377400Y-92592600I0J75000D01*
G01*
X142377400Y-91142600D01*
G75*
G02*
X142452400Y-91067600I75000J0D01*
G01*
X142602400Y-91067600D01*
G75*
G02*
X142677400Y-91142600I0J-75000D01*
G01*
X142677400Y-92592600D01*
G75*
G02*
X142602400Y-92667600I-75000J0D01*
G01*
G37*
G36*
G01*
X142102400Y-92667600D02*
X141952400Y-92667600D01*
G75*
G02*
X141877400Y-92592600I0J75000D01*
G01*
X141877400Y-91142600D01*
G75*
G02*
X141952400Y-91067600I75000J0D01*
G01*
X142102400Y-91067600D01*
G75*
G02*
X142177400Y-91142600I0J-75000D01*
G01*
X142177400Y-92592600D01*
G75*
G02*
X142102400Y-92667600I-75000J0D01*
G01*
G37*
G36*
G01*
X141602400Y-92667600D02*
X141452400Y-92667600D01*
G75*
G02*
X141377400Y-92592600I0J75000D01*
G01*
X141377400Y-91142600D01*
G75*
G02*
X141452400Y-91067600I75000J0D01*
G01*
X141602400Y-91067600D01*
G75*
G02*
X141677400Y-91142600I0J-75000D01*
G01*
X141677400Y-92592600D01*
G75*
G02*
X141602400Y-92667600I-75000J0D01*
G01*
G37*
G36*
G01*
X141102400Y-92667600D02*
X140952400Y-92667600D01*
G75*
G02*
X140877400Y-92592600I0J75000D01*
G01*
X140877400Y-91142600D01*
G75*
G02*
X140952400Y-91067600I75000J0D01*
G01*
X141102400Y-91067600D01*
G75*
G02*
X141177400Y-91142600I0J-75000D01*
G01*
X141177400Y-92592600D01*
G75*
G02*
X141102400Y-92667600I-75000J0D01*
G01*
G37*
G36*
G01*
X140602400Y-92667600D02*
X140452400Y-92667600D01*
G75*
G02*
X140377400Y-92592600I0J75000D01*
G01*
X140377400Y-91142600D01*
G75*
G02*
X140452400Y-91067600I75000J0D01*
G01*
X140602400Y-91067600D01*
G75*
G02*
X140677400Y-91142600I0J-75000D01*
G01*
X140677400Y-92592600D01*
G75*
G02*
X140602400Y-92667600I-75000J0D01*
G01*
G37*
G36*
G01*
X140102400Y-92667600D02*
X139952400Y-92667600D01*
G75*
G02*
X139877400Y-92592600I0J75000D01*
G01*
X139877400Y-91142600D01*
G75*
G02*
X139952400Y-91067600I75000J0D01*
G01*
X140102400Y-91067600D01*
G75*
G02*
X140177400Y-91142600I0J-75000D01*
G01*
X140177400Y-92592600D01*
G75*
G02*
X140102400Y-92667600I-75000J0D01*
G01*
G37*
G36*
G01*
X139602400Y-92667600D02*
X139452400Y-92667600D01*
G75*
G02*
X139377400Y-92592600I0J75000D01*
G01*
X139377400Y-91142600D01*
G75*
G02*
X139452400Y-91067600I75000J0D01*
G01*
X139602400Y-91067600D01*
G75*
G02*
X139677400Y-91142600I0J-75000D01*
G01*
X139677400Y-92592600D01*
G75*
G02*
X139602400Y-92667600I-75000J0D01*
G01*
G37*
G36*
G01*
X139102400Y-92667600D02*
X138952400Y-92667600D01*
G75*
G02*
X138877400Y-92592600I0J75000D01*
G01*
X138877400Y-91142600D01*
G75*
G02*
X138952400Y-91067600I75000J0D01*
G01*
X139102400Y-91067600D01*
G75*
G02*
X139177400Y-91142600I0J-75000D01*
G01*
X139177400Y-92592600D01*
G75*
G02*
X139102400Y-92667600I-75000J0D01*
G01*
G37*
G36*
G01*
X138602400Y-92667600D02*
X138452400Y-92667600D01*
G75*
G02*
X138377400Y-92592600I0J75000D01*
G01*
X138377400Y-91142600D01*
G75*
G02*
X138452400Y-91067600I75000J0D01*
G01*
X138602400Y-91067600D01*
G75*
G02*
X138677400Y-91142600I0J-75000D01*
G01*
X138677400Y-92592600D01*
G75*
G02*
X138602400Y-92667600I-75000J0D01*
G01*
G37*
G36*
G01*
X138102400Y-92667600D02*
X137952400Y-92667600D01*
G75*
G02*
X137877400Y-92592600I0J75000D01*
G01*
X137877400Y-91142600D01*
G75*
G02*
X137952400Y-91067600I75000J0D01*
G01*
X138102400Y-91067600D01*
G75*
G02*
X138177400Y-91142600I0J-75000D01*
G01*
X138177400Y-92592600D01*
G75*
G02*
X138102400Y-92667600I-75000J0D01*
G01*
G37*
G36*
G01*
X137602400Y-92667600D02*
X137452400Y-92667600D01*
G75*
G02*
X137377400Y-92592600I0J75000D01*
G01*
X137377400Y-91142600D01*
G75*
G02*
X137452400Y-91067600I75000J0D01*
G01*
X137602400Y-91067600D01*
G75*
G02*
X137677400Y-91142600I0J-75000D01*
G01*
X137677400Y-92592600D01*
G75*
G02*
X137602400Y-92667600I-75000J0D01*
G01*
G37*
G36*
G01*
X137102400Y-92667600D02*
X136952400Y-92667600D01*
G75*
G02*
X136877400Y-92592600I0J75000D01*
G01*
X136877400Y-91142600D01*
G75*
G02*
X136952400Y-91067600I75000J0D01*
G01*
X137102400Y-91067600D01*
G75*
G02*
X137177400Y-91142600I0J-75000D01*
G01*
X137177400Y-92592600D01*
G75*
G02*
X137102400Y-92667600I-75000J0D01*
G01*
G37*
G36*
G01*
X136077400Y-93692600D02*
X134627400Y-93692600D01*
G75*
G02*
X134552400Y-93617600I0J75000D01*
G01*
X134552400Y-93467600D01*
G75*
G02*
X134627400Y-93392600I75000J0D01*
G01*
X136077400Y-93392600D01*
G75*
G02*
X136152400Y-93467600I0J-75000D01*
G01*
X136152400Y-93617600D01*
G75*
G02*
X136077400Y-93692600I-75000J0D01*
G01*
G37*
G36*
G01*
X136077400Y-94192600D02*
X134627400Y-94192600D01*
G75*
G02*
X134552400Y-94117600I0J75000D01*
G01*
X134552400Y-93967600D01*
G75*
G02*
X134627400Y-93892600I75000J0D01*
G01*
X136077400Y-93892600D01*
G75*
G02*
X136152400Y-93967600I0J-75000D01*
G01*
X136152400Y-94117600D01*
G75*
G02*
X136077400Y-94192600I-75000J0D01*
G01*
G37*
G36*
G01*
X136077400Y-94692600D02*
X134627400Y-94692600D01*
G75*
G02*
X134552400Y-94617600I0J75000D01*
G01*
X134552400Y-94467600D01*
G75*
G02*
X134627400Y-94392600I75000J0D01*
G01*
X136077400Y-94392600D01*
G75*
G02*
X136152400Y-94467600I0J-75000D01*
G01*
X136152400Y-94617600D01*
G75*
G02*
X136077400Y-94692600I-75000J0D01*
G01*
G37*
G36*
G01*
X136077400Y-95192600D02*
X134627400Y-95192600D01*
G75*
G02*
X134552400Y-95117600I0J75000D01*
G01*
X134552400Y-94967600D01*
G75*
G02*
X134627400Y-94892600I75000J0D01*
G01*
X136077400Y-94892600D01*
G75*
G02*
X136152400Y-94967600I0J-75000D01*
G01*
X136152400Y-95117600D01*
G75*
G02*
X136077400Y-95192600I-75000J0D01*
G01*
G37*
G36*
G01*
X136077400Y-95692600D02*
X134627400Y-95692600D01*
G75*
G02*
X134552400Y-95617600I0J75000D01*
G01*
X134552400Y-95467600D01*
G75*
G02*
X134627400Y-95392600I75000J0D01*
G01*
X136077400Y-95392600D01*
G75*
G02*
X136152400Y-95467600I0J-75000D01*
G01*
X136152400Y-95617600D01*
G75*
G02*
X136077400Y-95692600I-75000J0D01*
G01*
G37*
G36*
G01*
X136077400Y-96192600D02*
X134627400Y-96192600D01*
G75*
G02*
X134552400Y-96117600I0J75000D01*
G01*
X134552400Y-95967600D01*
G75*
G02*
X134627400Y-95892600I75000J0D01*
G01*
X136077400Y-95892600D01*
G75*
G02*
X136152400Y-95967600I0J-75000D01*
G01*
X136152400Y-96117600D01*
G75*
G02*
X136077400Y-96192600I-75000J0D01*
G01*
G37*
G36*
G01*
X136077400Y-96692600D02*
X134627400Y-96692600D01*
G75*
G02*
X134552400Y-96617600I0J75000D01*
G01*
X134552400Y-96467600D01*
G75*
G02*
X134627400Y-96392600I75000J0D01*
G01*
X136077400Y-96392600D01*
G75*
G02*
X136152400Y-96467600I0J-75000D01*
G01*
X136152400Y-96617600D01*
G75*
G02*
X136077400Y-96692600I-75000J0D01*
G01*
G37*
G36*
G01*
X136077400Y-97192600D02*
X134627400Y-97192600D01*
G75*
G02*
X134552400Y-97117600I0J75000D01*
G01*
X134552400Y-96967600D01*
G75*
G02*
X134627400Y-96892600I75000J0D01*
G01*
X136077400Y-96892600D01*
G75*
G02*
X136152400Y-96967600I0J-75000D01*
G01*
X136152400Y-97117600D01*
G75*
G02*
X136077400Y-97192600I-75000J0D01*
G01*
G37*
G36*
G01*
X136077400Y-97692600D02*
X134627400Y-97692600D01*
G75*
G02*
X134552400Y-97617600I0J75000D01*
G01*
X134552400Y-97467600D01*
G75*
G02*
X134627400Y-97392600I75000J0D01*
G01*
X136077400Y-97392600D01*
G75*
G02*
X136152400Y-97467600I0J-75000D01*
G01*
X136152400Y-97617600D01*
G75*
G02*
X136077400Y-97692600I-75000J0D01*
G01*
G37*
G36*
G01*
X136077400Y-98192600D02*
X134627400Y-98192600D01*
G75*
G02*
X134552400Y-98117600I0J75000D01*
G01*
X134552400Y-97967600D01*
G75*
G02*
X134627400Y-97892600I75000J0D01*
G01*
X136077400Y-97892600D01*
G75*
G02*
X136152400Y-97967600I0J-75000D01*
G01*
X136152400Y-98117600D01*
G75*
G02*
X136077400Y-98192600I-75000J0D01*
G01*
G37*
G36*
G01*
X136077400Y-98692600D02*
X134627400Y-98692600D01*
G75*
G02*
X134552400Y-98617600I0J75000D01*
G01*
X134552400Y-98467600D01*
G75*
G02*
X134627400Y-98392600I75000J0D01*
G01*
X136077400Y-98392600D01*
G75*
G02*
X136152400Y-98467600I0J-75000D01*
G01*
X136152400Y-98617600D01*
G75*
G02*
X136077400Y-98692600I-75000J0D01*
G01*
G37*
G36*
G01*
X136077400Y-99192600D02*
X134627400Y-99192600D01*
G75*
G02*
X134552400Y-99117600I0J75000D01*
G01*
X134552400Y-98967600D01*
G75*
G02*
X134627400Y-98892600I75000J0D01*
G01*
X136077400Y-98892600D01*
G75*
G02*
X136152400Y-98967600I0J-75000D01*
G01*
X136152400Y-99117600D01*
G75*
G02*
X136077400Y-99192600I-75000J0D01*
G01*
G37*
G36*
G01*
X136077400Y-99692600D02*
X134627400Y-99692600D01*
G75*
G02*
X134552400Y-99617600I0J75000D01*
G01*
X134552400Y-99467600D01*
G75*
G02*
X134627400Y-99392600I75000J0D01*
G01*
X136077400Y-99392600D01*
G75*
G02*
X136152400Y-99467600I0J-75000D01*
G01*
X136152400Y-99617600D01*
G75*
G02*
X136077400Y-99692600I-75000J0D01*
G01*
G37*
G36*
G01*
X136077400Y-100192600D02*
X134627400Y-100192600D01*
G75*
G02*
X134552400Y-100117600I0J75000D01*
G01*
X134552400Y-99967600D01*
G75*
G02*
X134627400Y-99892600I75000J0D01*
G01*
X136077400Y-99892600D01*
G75*
G02*
X136152400Y-99967600I0J-75000D01*
G01*
X136152400Y-100117600D01*
G75*
G02*
X136077400Y-100192600I-75000J0D01*
G01*
G37*
G36*
G01*
X136077400Y-100692600D02*
X134627400Y-100692600D01*
G75*
G02*
X134552400Y-100617600I0J75000D01*
G01*
X134552400Y-100467600D01*
G75*
G02*
X134627400Y-100392600I75000J0D01*
G01*
X136077400Y-100392600D01*
G75*
G02*
X136152400Y-100467600I0J-75000D01*
G01*
X136152400Y-100617600D01*
G75*
G02*
X136077400Y-100692600I-75000J0D01*
G01*
G37*
G36*
G01*
X136077400Y-101192600D02*
X134627400Y-101192600D01*
G75*
G02*
X134552400Y-101117600I0J75000D01*
G01*
X134552400Y-100967600D01*
G75*
G02*
X134627400Y-100892600I75000J0D01*
G01*
X136077400Y-100892600D01*
G75*
G02*
X136152400Y-100967600I0J-75000D01*
G01*
X136152400Y-101117600D01*
G75*
G02*
X136077400Y-101192600I-75000J0D01*
G01*
G37*
G36*
G01*
X136077400Y-101692600D02*
X134627400Y-101692600D01*
G75*
G02*
X134552400Y-101617600I0J75000D01*
G01*
X134552400Y-101467600D01*
G75*
G02*
X134627400Y-101392600I75000J0D01*
G01*
X136077400Y-101392600D01*
G75*
G02*
X136152400Y-101467600I0J-75000D01*
G01*
X136152400Y-101617600D01*
G75*
G02*
X136077400Y-101692600I-75000J0D01*
G01*
G37*
G36*
G01*
X136077400Y-102192600D02*
X134627400Y-102192600D01*
G75*
G02*
X134552400Y-102117600I0J75000D01*
G01*
X134552400Y-101967600D01*
G75*
G02*
X134627400Y-101892600I75000J0D01*
G01*
X136077400Y-101892600D01*
G75*
G02*
X136152400Y-101967600I0J-75000D01*
G01*
X136152400Y-102117600D01*
G75*
G02*
X136077400Y-102192600I-75000J0D01*
G01*
G37*
G36*
G01*
X136077400Y-102692600D02*
X134627400Y-102692600D01*
G75*
G02*
X134552400Y-102617600I0J75000D01*
G01*
X134552400Y-102467600D01*
G75*
G02*
X134627400Y-102392600I75000J0D01*
G01*
X136077400Y-102392600D01*
G75*
G02*
X136152400Y-102467600I0J-75000D01*
G01*
X136152400Y-102617600D01*
G75*
G02*
X136077400Y-102692600I-75000J0D01*
G01*
G37*
G36*
G01*
X136077400Y-103192600D02*
X134627400Y-103192600D01*
G75*
G02*
X134552400Y-103117600I0J75000D01*
G01*
X134552400Y-102967600D01*
G75*
G02*
X134627400Y-102892600I75000J0D01*
G01*
X136077400Y-102892600D01*
G75*
G02*
X136152400Y-102967600I0J-75000D01*
G01*
X136152400Y-103117600D01*
G75*
G02*
X136077400Y-103192600I-75000J0D01*
G01*
G37*
G36*
G01*
X136077400Y-103692600D02*
X134627400Y-103692600D01*
G75*
G02*
X134552400Y-103617600I0J75000D01*
G01*
X134552400Y-103467600D01*
G75*
G02*
X134627400Y-103392600I75000J0D01*
G01*
X136077400Y-103392600D01*
G75*
G02*
X136152400Y-103467600I0J-75000D01*
G01*
X136152400Y-103617600D01*
G75*
G02*
X136077400Y-103692600I-75000J0D01*
G01*
G37*
G36*
G01*
X136077400Y-104192600D02*
X134627400Y-104192600D01*
G75*
G02*
X134552400Y-104117600I0J75000D01*
G01*
X134552400Y-103967600D01*
G75*
G02*
X134627400Y-103892600I75000J0D01*
G01*
X136077400Y-103892600D01*
G75*
G02*
X136152400Y-103967600I0J-75000D01*
G01*
X136152400Y-104117600D01*
G75*
G02*
X136077400Y-104192600I-75000J0D01*
G01*
G37*
G36*
G01*
X136077400Y-104692600D02*
X134627400Y-104692600D01*
G75*
G02*
X134552400Y-104617600I0J75000D01*
G01*
X134552400Y-104467600D01*
G75*
G02*
X134627400Y-104392600I75000J0D01*
G01*
X136077400Y-104392600D01*
G75*
G02*
X136152400Y-104467600I0J-75000D01*
G01*
X136152400Y-104617600D01*
G75*
G02*
X136077400Y-104692600I-75000J0D01*
G01*
G37*
G36*
G01*
X136077400Y-105192600D02*
X134627400Y-105192600D01*
G75*
G02*
X134552400Y-105117600I0J75000D01*
G01*
X134552400Y-104967600D01*
G75*
G02*
X134627400Y-104892600I75000J0D01*
G01*
X136077400Y-104892600D01*
G75*
G02*
X136152400Y-104967600I0J-75000D01*
G01*
X136152400Y-105117600D01*
G75*
G02*
X136077400Y-105192600I-75000J0D01*
G01*
G37*
G36*
G01*
X136077400Y-105692600D02*
X134627400Y-105692600D01*
G75*
G02*
X134552400Y-105617600I0J75000D01*
G01*
X134552400Y-105467600D01*
G75*
G02*
X134627400Y-105392600I75000J0D01*
G01*
X136077400Y-105392600D01*
G75*
G02*
X136152400Y-105467600I0J-75000D01*
G01*
X136152400Y-105617600D01*
G75*
G02*
X136077400Y-105692600I-75000J0D01*
G01*
G37*
%TD*%
D14*
%TO.C,BOOT CHARGE*%
X139979400Y-85117800D03*
X139979400Y-78917800D03*
X136279400Y-78917800D03*
X136279400Y-85117800D03*
%TD*%
%TO.C,R24*%
G36*
G01*
X156458600Y-102518800D02*
X156458600Y-103068800D01*
G75*
G02*
X156258600Y-103268800I-200000J0D01*
G01*
X155858600Y-103268800D01*
G75*
G02*
X155658600Y-103068800I0J200000D01*
G01*
X155658600Y-102518800D01*
G75*
G02*
X155858600Y-102318800I200000J0D01*
G01*
X156258600Y-102318800D01*
G75*
G02*
X156458600Y-102518800I0J-200000D01*
G01*
G37*
G36*
G01*
X158108600Y-102518800D02*
X158108600Y-103068800D01*
G75*
G02*
X157908600Y-103268800I-200000J0D01*
G01*
X157508600Y-103268800D01*
G75*
G02*
X157308600Y-103068800I0J200000D01*
G01*
X157308600Y-102518800D01*
G75*
G02*
X157508600Y-102318800I200000J0D01*
G01*
X157908600Y-102318800D01*
G75*
G02*
X158108600Y-102518800I0J-200000D01*
G01*
G37*
%TD*%
%TO.C,R23*%
G36*
G01*
X164282800Y-94330200D02*
X163732800Y-94330200D01*
G75*
G02*
X163532800Y-94130200I0J200000D01*
G01*
X163532800Y-93730200D01*
G75*
G02*
X163732800Y-93530200I200000J0D01*
G01*
X164282800Y-93530200D01*
G75*
G02*
X164482800Y-93730200I0J-200000D01*
G01*
X164482800Y-94130200D01*
G75*
G02*
X164282800Y-94330200I-200000J0D01*
G01*
G37*
G36*
G01*
X164282800Y-95980200D02*
X163732800Y-95980200D01*
G75*
G02*
X163532800Y-95780200I0J200000D01*
G01*
X163532800Y-95380200D01*
G75*
G02*
X163732800Y-95180200I200000J0D01*
G01*
X164282800Y-95180200D01*
G75*
G02*
X164482800Y-95380200I0J-200000D01*
G01*
X164482800Y-95780200D01*
G75*
G02*
X164282800Y-95980200I-200000J0D01*
G01*
G37*
%TD*%
%TO.C,R22*%
G36*
G01*
X188716600Y-87990000D02*
X188716600Y-88540000D01*
G75*
G02*
X188516600Y-88740000I-200000J0D01*
G01*
X188116600Y-88740000D01*
G75*
G02*
X187916600Y-88540000I0J200000D01*
G01*
X187916600Y-87990000D01*
G75*
G02*
X188116600Y-87790000I200000J0D01*
G01*
X188516600Y-87790000D01*
G75*
G02*
X188716600Y-87990000I0J-200000D01*
G01*
G37*
G36*
G01*
X190366600Y-87990000D02*
X190366600Y-88540000D01*
G75*
G02*
X190166600Y-88740000I-200000J0D01*
G01*
X189766600Y-88740000D01*
G75*
G02*
X189566600Y-88540000I0J200000D01*
G01*
X189566600Y-87990000D01*
G75*
G02*
X189766600Y-87790000I200000J0D01*
G01*
X190166600Y-87790000D01*
G75*
G02*
X190366600Y-87990000I0J-200000D01*
G01*
G37*
%TD*%
%TO.C,R21*%
G36*
G01*
X186849200Y-109072000D02*
X186849200Y-109622000D01*
G75*
G02*
X186649200Y-109822000I-200000J0D01*
G01*
X186249200Y-109822000D01*
G75*
G02*
X186049200Y-109622000I0J200000D01*
G01*
X186049200Y-109072000D01*
G75*
G02*
X186249200Y-108872000I200000J0D01*
G01*
X186649200Y-108872000D01*
G75*
G02*
X186849200Y-109072000I0J-200000D01*
G01*
G37*
G36*
G01*
X188499200Y-109072000D02*
X188499200Y-109622000D01*
G75*
G02*
X188299200Y-109822000I-200000J0D01*
G01*
X187899200Y-109822000D01*
G75*
G02*
X187699200Y-109622000I0J200000D01*
G01*
X187699200Y-109072000D01*
G75*
G02*
X187899200Y-108872000I200000J0D01*
G01*
X188299200Y-108872000D01*
G75*
G02*
X188499200Y-109072000I0J-200000D01*
G01*
G37*
%TD*%
%TO.C,R20*%
G36*
G01*
X162708000Y-94037600D02*
X162158000Y-94037600D01*
G75*
G02*
X161958000Y-93837600I0J200000D01*
G01*
X161958000Y-93437600D01*
G75*
G02*
X162158000Y-93237600I200000J0D01*
G01*
X162708000Y-93237600D01*
G75*
G02*
X162908000Y-93437600I0J-200000D01*
G01*
X162908000Y-93837600D01*
G75*
G02*
X162708000Y-94037600I-200000J0D01*
G01*
G37*
G36*
G01*
X162708000Y-95687600D02*
X162158000Y-95687600D01*
G75*
G02*
X161958000Y-95487600I0J200000D01*
G01*
X161958000Y-95087600D01*
G75*
G02*
X162158000Y-94887600I200000J0D01*
G01*
X162708000Y-94887600D01*
G75*
G02*
X162908000Y-95087600I0J-200000D01*
G01*
X162908000Y-95487600D01*
G75*
G02*
X162708000Y-95687600I-200000J0D01*
G01*
G37*
%TD*%
%TO.C,R19*%
G36*
G01*
X158957600Y-103980800D02*
X159507600Y-103980800D01*
G75*
G02*
X159707600Y-104180800I0J-200000D01*
G01*
X159707600Y-104580800D01*
G75*
G02*
X159507600Y-104780800I-200000J0D01*
G01*
X158957600Y-104780800D01*
G75*
G02*
X158757600Y-104580800I0J200000D01*
G01*
X158757600Y-104180800D01*
G75*
G02*
X158957600Y-103980800I200000J0D01*
G01*
G37*
G36*
G01*
X158957600Y-102330800D02*
X159507600Y-102330800D01*
G75*
G02*
X159707600Y-102530800I0J-200000D01*
G01*
X159707600Y-102930800D01*
G75*
G02*
X159507600Y-103130800I-200000J0D01*
G01*
X158957600Y-103130800D01*
G75*
G02*
X158757600Y-102930800I0J200000D01*
G01*
X158757600Y-102530800D01*
G75*
G02*
X158957600Y-102330800I200000J0D01*
G01*
G37*
%TD*%
%TO.C,R18*%
G36*
G01*
X156712600Y-96727600D02*
X156712600Y-97277600D01*
G75*
G02*
X156512600Y-97477600I-200000J0D01*
G01*
X156112600Y-97477600D01*
G75*
G02*
X155912600Y-97277600I0J200000D01*
G01*
X155912600Y-96727600D01*
G75*
G02*
X156112600Y-96527600I200000J0D01*
G01*
X156512600Y-96527600D01*
G75*
G02*
X156712600Y-96727600I0J-200000D01*
G01*
G37*
G36*
G01*
X158362600Y-96727600D02*
X158362600Y-97277600D01*
G75*
G02*
X158162600Y-97477600I-200000J0D01*
G01*
X157762600Y-97477600D01*
G75*
G02*
X157562600Y-97277600I0J200000D01*
G01*
X157562600Y-96727600D01*
G75*
G02*
X157762600Y-96527600I200000J0D01*
G01*
X158162600Y-96527600D01*
G75*
G02*
X158362600Y-96727600I0J-200000D01*
G01*
G37*
%TD*%
%TO.C,R17*%
G36*
G01*
X156712600Y-98251600D02*
X156712600Y-98801600D01*
G75*
G02*
X156512600Y-99001600I-200000J0D01*
G01*
X156112600Y-99001600D01*
G75*
G02*
X155912600Y-98801600I0J200000D01*
G01*
X155912600Y-98251600D01*
G75*
G02*
X156112600Y-98051600I200000J0D01*
G01*
X156512600Y-98051600D01*
G75*
G02*
X156712600Y-98251600I0J-200000D01*
G01*
G37*
G36*
G01*
X158362600Y-98251600D02*
X158362600Y-98801600D01*
G75*
G02*
X158162600Y-99001600I-200000J0D01*
G01*
X157762600Y-99001600D01*
G75*
G02*
X157562600Y-98801600I0J200000D01*
G01*
X157562600Y-98251600D01*
G75*
G02*
X157762600Y-98051600I200000J0D01*
G01*
X158162600Y-98051600D01*
G75*
G02*
X158362600Y-98251600I0J-200000D01*
G01*
G37*
%TD*%
%TO.C,R16*%
G36*
G01*
X160481600Y-103993000D02*
X161031600Y-103993000D01*
G75*
G02*
X161231600Y-104193000I0J-200000D01*
G01*
X161231600Y-104593000D01*
G75*
G02*
X161031600Y-104793000I-200000J0D01*
G01*
X160481600Y-104793000D01*
G75*
G02*
X160281600Y-104593000I0J200000D01*
G01*
X160281600Y-104193000D01*
G75*
G02*
X160481600Y-103993000I200000J0D01*
G01*
G37*
G36*
G01*
X160481600Y-102343000D02*
X161031600Y-102343000D01*
G75*
G02*
X161231600Y-102543000I0J-200000D01*
G01*
X161231600Y-102943000D01*
G75*
G02*
X161031600Y-103143000I-200000J0D01*
G01*
X160481600Y-103143000D01*
G75*
G02*
X160281600Y-102943000I0J200000D01*
G01*
X160281600Y-102543000D01*
G75*
G02*
X160481600Y-102343000I200000J0D01*
G01*
G37*
%TD*%
%TO.C,R15*%
G36*
G01*
X163529600Y-103993000D02*
X164079600Y-103993000D01*
G75*
G02*
X164279600Y-104193000I0J-200000D01*
G01*
X164279600Y-104593000D01*
G75*
G02*
X164079600Y-104793000I-200000J0D01*
G01*
X163529600Y-104793000D01*
G75*
G02*
X163329600Y-104593000I0J200000D01*
G01*
X163329600Y-104193000D01*
G75*
G02*
X163529600Y-103993000I200000J0D01*
G01*
G37*
G36*
G01*
X163529600Y-102343000D02*
X164079600Y-102343000D01*
G75*
G02*
X164279600Y-102543000I0J-200000D01*
G01*
X164279600Y-102943000D01*
G75*
G02*
X164079600Y-103143000I-200000J0D01*
G01*
X163529600Y-103143000D01*
G75*
G02*
X163329600Y-102943000I0J200000D01*
G01*
X163329600Y-102543000D01*
G75*
G02*
X163529600Y-102343000I200000J0D01*
G01*
G37*
%TD*%
%TO.C,R14*%
G36*
G01*
X162005600Y-103993000D02*
X162555600Y-103993000D01*
G75*
G02*
X162755600Y-104193000I0J-200000D01*
G01*
X162755600Y-104593000D01*
G75*
G02*
X162555600Y-104793000I-200000J0D01*
G01*
X162005600Y-104793000D01*
G75*
G02*
X161805600Y-104593000I0J200000D01*
G01*
X161805600Y-104193000D01*
G75*
G02*
X162005600Y-103993000I200000J0D01*
G01*
G37*
G36*
G01*
X162005600Y-102343000D02*
X162555600Y-102343000D01*
G75*
G02*
X162755600Y-102543000I0J-200000D01*
G01*
X162755600Y-102943000D01*
G75*
G02*
X162555600Y-103143000I-200000J0D01*
G01*
X162005600Y-103143000D01*
G75*
G02*
X161805600Y-102943000I0J200000D01*
G01*
X161805600Y-102543000D01*
G75*
G02*
X162005600Y-102343000I200000J0D01*
G01*
G37*
%TD*%
%TO.C,R13*%
G36*
G01*
X157664200Y-101240000D02*
X157664200Y-100690000D01*
G75*
G02*
X157864200Y-100490000I200000J0D01*
G01*
X158264200Y-100490000D01*
G75*
G02*
X158464200Y-100690000I0J-200000D01*
G01*
X158464200Y-101240000D01*
G75*
G02*
X158264200Y-101440000I-200000J0D01*
G01*
X157864200Y-101440000D01*
G75*
G02*
X157664200Y-101240000I0J200000D01*
G01*
G37*
G36*
G01*
X156014200Y-101240000D02*
X156014200Y-100690000D01*
G75*
G02*
X156214200Y-100490000I200000J0D01*
G01*
X156614200Y-100490000D01*
G75*
G02*
X156814200Y-100690000I0J-200000D01*
G01*
X156814200Y-101240000D01*
G75*
G02*
X156614200Y-101440000I-200000J0D01*
G01*
X156214200Y-101440000D01*
G75*
G02*
X156014200Y-101240000I0J200000D01*
G01*
G37*
%TD*%
%TO.C,R12*%
G36*
G01*
X168851800Y-97540400D02*
X168851800Y-98090400D01*
G75*
G02*
X168651800Y-98290400I-200000J0D01*
G01*
X168251800Y-98290400D01*
G75*
G02*
X168051800Y-98090400I0J200000D01*
G01*
X168051800Y-97540400D01*
G75*
G02*
X168251800Y-97340400I200000J0D01*
G01*
X168651800Y-97340400D01*
G75*
G02*
X168851800Y-97540400I0J-200000D01*
G01*
G37*
G36*
G01*
X167201800Y-97540400D02*
X167201800Y-98090400D01*
G75*
G02*
X167001800Y-98290400I-200000J0D01*
G01*
X166601800Y-98290400D01*
G75*
G02*
X166401800Y-98090400I0J200000D01*
G01*
X166401800Y-97540400D01*
G75*
G02*
X166601800Y-97340400I200000J0D01*
G01*
X167001800Y-97340400D01*
G75*
G02*
X167201800Y-97540400I0J-200000D01*
G01*
G37*
%TD*%
%TO.C,R11*%
G36*
G01*
X165307600Y-94292200D02*
X165857600Y-94292200D01*
G75*
G02*
X166057600Y-94492200I0J-200000D01*
G01*
X166057600Y-94892200D01*
G75*
G02*
X165857600Y-95092200I-200000J0D01*
G01*
X165307600Y-95092200D01*
G75*
G02*
X165107600Y-94892200I0J200000D01*
G01*
X165107600Y-94492200D01*
G75*
G02*
X165307600Y-94292200I200000J0D01*
G01*
G37*
G36*
G01*
X165307600Y-95942200D02*
X165857600Y-95942200D01*
G75*
G02*
X166057600Y-96142200I0J-200000D01*
G01*
X166057600Y-96542200D01*
G75*
G02*
X165857600Y-96742200I-200000J0D01*
G01*
X165307600Y-96742200D01*
G75*
G02*
X165107600Y-96542200I0J200000D01*
G01*
X165107600Y-96142200D01*
G75*
G02*
X165307600Y-95942200I200000J0D01*
G01*
G37*
%TD*%
%TO.C,R10*%
G36*
G01*
X165857600Y-103549400D02*
X165307600Y-103549400D01*
G75*
G02*
X165107600Y-103349400I0J200000D01*
G01*
X165107600Y-102949400D01*
G75*
G02*
X165307600Y-102749400I200000J0D01*
G01*
X165857600Y-102749400D01*
G75*
G02*
X166057600Y-102949400I0J-200000D01*
G01*
X166057600Y-103349400D01*
G75*
G02*
X165857600Y-103549400I-200000J0D01*
G01*
G37*
G36*
G01*
X165857600Y-101899400D02*
X165307600Y-101899400D01*
G75*
G02*
X165107600Y-101699400I0J200000D01*
G01*
X165107600Y-101299400D01*
G75*
G02*
X165307600Y-101099400I200000J0D01*
G01*
X165857600Y-101099400D01*
G75*
G02*
X166057600Y-101299400I0J-200000D01*
G01*
X166057600Y-101699400D01*
G75*
G02*
X165857600Y-101899400I-200000J0D01*
G01*
G37*
%TD*%
%TO.C,R9*%
G36*
G01*
X168851800Y-99775600D02*
X168851800Y-100325600D01*
G75*
G02*
X168651800Y-100525600I-200000J0D01*
G01*
X168251800Y-100525600D01*
G75*
G02*
X168051800Y-100325600I0J200000D01*
G01*
X168051800Y-99775600D01*
G75*
G02*
X168251800Y-99575600I200000J0D01*
G01*
X168651800Y-99575600D01*
G75*
G02*
X168851800Y-99775600I0J-200000D01*
G01*
G37*
G36*
G01*
X167201800Y-99775600D02*
X167201800Y-100325600D01*
G75*
G02*
X167001800Y-100525600I-200000J0D01*
G01*
X166601800Y-100525600D01*
G75*
G02*
X166401800Y-100325600I0J200000D01*
G01*
X166401800Y-99775600D01*
G75*
G02*
X166601800Y-99575600I200000J0D01*
G01*
X167001800Y-99575600D01*
G75*
G02*
X167201800Y-99775600I0J-200000D01*
G01*
G37*
%TD*%
%TO.C,R7*%
G36*
G01*
X139390800Y-88640600D02*
X138840800Y-88640600D01*
G75*
G02*
X138640800Y-88440600I0J200000D01*
G01*
X138640800Y-88040600D01*
G75*
G02*
X138840800Y-87840600I200000J0D01*
G01*
X139390800Y-87840600D01*
G75*
G02*
X139590800Y-88040600I0J-200000D01*
G01*
X139590800Y-88440600D01*
G75*
G02*
X139390800Y-88640600I-200000J0D01*
G01*
G37*
G36*
G01*
X139390800Y-90290600D02*
X138840800Y-90290600D01*
G75*
G02*
X138640800Y-90090600I0J200000D01*
G01*
X138640800Y-89690600D01*
G75*
G02*
X138840800Y-89490600I200000J0D01*
G01*
X139390800Y-89490600D01*
G75*
G02*
X139590800Y-89690600I0J-200000D01*
G01*
X139590800Y-90090600D01*
G75*
G02*
X139390800Y-90290600I-200000J0D01*
G01*
G37*
%TD*%
%TO.C,R5*%
G36*
G01*
X149508800Y-82886600D02*
X150058800Y-82886600D01*
G75*
G02*
X150258800Y-83086600I0J-200000D01*
G01*
X150258800Y-83486600D01*
G75*
G02*
X150058800Y-83686600I-200000J0D01*
G01*
X149508800Y-83686600D01*
G75*
G02*
X149308800Y-83486600I0J200000D01*
G01*
X149308800Y-83086600D01*
G75*
G02*
X149508800Y-82886600I200000J0D01*
G01*
G37*
G36*
G01*
X149508800Y-81236600D02*
X150058800Y-81236600D01*
G75*
G02*
X150258800Y-81436600I0J-200000D01*
G01*
X150258800Y-81836600D01*
G75*
G02*
X150058800Y-82036600I-200000J0D01*
G01*
X149508800Y-82036600D01*
G75*
G02*
X149308800Y-81836600I0J200000D01*
G01*
X149308800Y-81436600D01*
G75*
G02*
X149508800Y-81236600I200000J0D01*
G01*
G37*
%TD*%
%TO.C,R3*%
G36*
G01*
X147934000Y-82886600D02*
X148484000Y-82886600D01*
G75*
G02*
X148684000Y-83086600I0J-200000D01*
G01*
X148684000Y-83486600D01*
G75*
G02*
X148484000Y-83686600I-200000J0D01*
G01*
X147934000Y-83686600D01*
G75*
G02*
X147734000Y-83486600I0J200000D01*
G01*
X147734000Y-83086600D01*
G75*
G02*
X147934000Y-82886600I200000J0D01*
G01*
G37*
G36*
G01*
X147934000Y-81236600D02*
X148484000Y-81236600D01*
G75*
G02*
X148684000Y-81436600I0J-200000D01*
G01*
X148684000Y-81836600D01*
G75*
G02*
X148484000Y-82036600I-200000J0D01*
G01*
X147934000Y-82036600D01*
G75*
G02*
X147734000Y-81836600I0J200000D01*
G01*
X147734000Y-81436600D01*
G75*
G02*
X147934000Y-81236600I200000J0D01*
G01*
G37*
%TD*%
%TO.C,R2*%
G36*
G01*
X146359200Y-82886600D02*
X146909200Y-82886600D01*
G75*
G02*
X147109200Y-83086600I0J-200000D01*
G01*
X147109200Y-83486600D01*
G75*
G02*
X146909200Y-83686600I-200000J0D01*
G01*
X146359200Y-83686600D01*
G75*
G02*
X146159200Y-83486600I0J200000D01*
G01*
X146159200Y-83086600D01*
G75*
G02*
X146359200Y-82886600I200000J0D01*
G01*
G37*
G36*
G01*
X146359200Y-81236600D02*
X146909200Y-81236600D01*
G75*
G02*
X147109200Y-81436600I0J-200000D01*
G01*
X147109200Y-81836600D01*
G75*
G02*
X146909200Y-82036600I-200000J0D01*
G01*
X146359200Y-82036600D01*
G75*
G02*
X146159200Y-81836600I0J200000D01*
G01*
X146159200Y-81436600D01*
G75*
G02*
X146359200Y-81236600I200000J0D01*
G01*
G37*
%TD*%
%TO.C,R1*%
G36*
G01*
X144784400Y-82911000D02*
X145334400Y-82911000D01*
G75*
G02*
X145534400Y-83111000I0J-200000D01*
G01*
X145534400Y-83511000D01*
G75*
G02*
X145334400Y-83711000I-200000J0D01*
G01*
X144784400Y-83711000D01*
G75*
G02*
X144584400Y-83511000I0J200000D01*
G01*
X144584400Y-83111000D01*
G75*
G02*
X144784400Y-82911000I200000J0D01*
G01*
G37*
G36*
G01*
X144784400Y-81261000D02*
X145334400Y-81261000D01*
G75*
G02*
X145534400Y-81461000I0J-200000D01*
G01*
X145534400Y-81861000D01*
G75*
G02*
X145334400Y-82061000I-200000J0D01*
G01*
X144784400Y-82061000D01*
G75*
G02*
X144584400Y-81861000I0J200000D01*
G01*
X144584400Y-81461000D01*
G75*
G02*
X144784400Y-81261000I200000J0D01*
G01*
G37*
%TD*%
%TO.C,R6*%
G36*
G01*
X109543800Y-114507600D02*
X109543800Y-115057600D01*
G75*
G02*
X109343800Y-115257600I-200000J0D01*
G01*
X108943800Y-115257600D01*
G75*
G02*
X108743800Y-115057600I0J200000D01*
G01*
X108743800Y-114507600D01*
G75*
G02*
X108943800Y-114307600I200000J0D01*
G01*
X109343800Y-114307600D01*
G75*
G02*
X109543800Y-114507600I0J-200000D01*
G01*
G37*
G36*
G01*
X111193800Y-114507600D02*
X111193800Y-115057600D01*
G75*
G02*
X110993800Y-115257600I-200000J0D01*
G01*
X110593800Y-115257600D01*
G75*
G02*
X110393800Y-115057600I0J200000D01*
G01*
X110393800Y-114507600D01*
G75*
G02*
X110593800Y-114307600I200000J0D01*
G01*
X110993800Y-114307600D01*
G75*
G02*
X111193800Y-114507600I0J-200000D01*
G01*
G37*
%TD*%
%TO.C,R4*%
G36*
G01*
X109569200Y-100613800D02*
X109569200Y-101163800D01*
G75*
G02*
X109369200Y-101363800I-200000J0D01*
G01*
X108969200Y-101363800D01*
G75*
G02*
X108769200Y-101163800I0J200000D01*
G01*
X108769200Y-100613800D01*
G75*
G02*
X108969200Y-100413800I200000J0D01*
G01*
X109369200Y-100413800D01*
G75*
G02*
X109569200Y-100613800I0J-200000D01*
G01*
G37*
G36*
G01*
X111219200Y-100613800D02*
X111219200Y-101163800D01*
G75*
G02*
X111019200Y-101363800I-200000J0D01*
G01*
X110619200Y-101363800D01*
G75*
G02*
X110419200Y-101163800I0J200000D01*
G01*
X110419200Y-100613800D01*
G75*
G02*
X110619200Y-100413800I200000J0D01*
G01*
X111019200Y-100413800D01*
G75*
G02*
X111219200Y-100613800I0J-200000D01*
G01*
G37*
%TD*%
%TO.C,R8*%
G36*
G01*
X148391200Y-113823800D02*
X148941200Y-113823800D01*
G75*
G02*
X149141200Y-114023800I0J-200000D01*
G01*
X149141200Y-114423800D01*
G75*
G02*
X148941200Y-114623800I-200000J0D01*
G01*
X148391200Y-114623800D01*
G75*
G02*
X148191200Y-114423800I0J200000D01*
G01*
X148191200Y-114023800D01*
G75*
G02*
X148391200Y-113823800I200000J0D01*
G01*
G37*
G36*
G01*
X148391200Y-112173800D02*
X148941200Y-112173800D01*
G75*
G02*
X149141200Y-112373800I0J-200000D01*
G01*
X149141200Y-112773800D01*
G75*
G02*
X148941200Y-112973800I-200000J0D01*
G01*
X148391200Y-112973800D01*
G75*
G02*
X148191200Y-112773800I0J200000D01*
G01*
X148191200Y-112373800D01*
G75*
G02*
X148391200Y-112173800I200000J0D01*
G01*
G37*
%TD*%
%TO.C,FB1*%
G36*
G01*
X169998200Y-94366800D02*
X169498200Y-94366800D01*
G75*
G02*
X169273200Y-94141800I0J225000D01*
G01*
X169273200Y-93691800D01*
G75*
G02*
X169498200Y-93466800I225000J0D01*
G01*
X169998200Y-93466800D01*
G75*
G02*
X170223200Y-93691800I0J-225000D01*
G01*
X170223200Y-94141800D01*
G75*
G02*
X169998200Y-94366800I-225000J0D01*
G01*
G37*
G36*
G01*
X169998200Y-92816800D02*
X169498200Y-92816800D01*
G75*
G02*
X169273200Y-92591800I0J225000D01*
G01*
X169273200Y-92141800D01*
G75*
G02*
X169498200Y-91916800I225000J0D01*
G01*
X169998200Y-91916800D01*
G75*
G02*
X170223200Y-92141800I0J-225000D01*
G01*
X170223200Y-92591800D01*
G75*
G02*
X169998200Y-92816800I-225000J0D01*
G01*
G37*
%TD*%
%TO.C,D5*%
G36*
G01*
X149527550Y-79699500D02*
X150040050Y-79699500D01*
G75*
G02*
X150258800Y-79918250I0J-218750D01*
G01*
X150258800Y-80355750D01*
G75*
G02*
X150040050Y-80574500I-218750J0D01*
G01*
X149527550Y-80574500D01*
G75*
G02*
X149308800Y-80355750I0J218750D01*
G01*
X149308800Y-79918250D01*
G75*
G02*
X149527550Y-79699500I218750J0D01*
G01*
G37*
G36*
G01*
X149527550Y-78124500D02*
X150040050Y-78124500D01*
G75*
G02*
X150258800Y-78343250I0J-218750D01*
G01*
X150258800Y-78780750D01*
G75*
G02*
X150040050Y-78999500I-218750J0D01*
G01*
X149527550Y-78999500D01*
G75*
G02*
X149308800Y-78780750I0J218750D01*
G01*
X149308800Y-78343250D01*
G75*
G02*
X149527550Y-78124500I218750J0D01*
G01*
G37*
%TD*%
%TO.C,D3*%
G36*
G01*
X147952750Y-79699500D02*
X148465250Y-79699500D01*
G75*
G02*
X148684000Y-79918250I0J-218750D01*
G01*
X148684000Y-80355750D01*
G75*
G02*
X148465250Y-80574500I-218750J0D01*
G01*
X147952750Y-80574500D01*
G75*
G02*
X147734000Y-80355750I0J218750D01*
G01*
X147734000Y-79918250D01*
G75*
G02*
X147952750Y-79699500I218750J0D01*
G01*
G37*
G36*
G01*
X147952750Y-78124500D02*
X148465250Y-78124500D01*
G75*
G02*
X148684000Y-78343250I0J-218750D01*
G01*
X148684000Y-78780750D01*
G75*
G02*
X148465250Y-78999500I-218750J0D01*
G01*
X147952750Y-78999500D01*
G75*
G02*
X147734000Y-78780750I0J218750D01*
G01*
X147734000Y-78343250D01*
G75*
G02*
X147952750Y-78124500I218750J0D01*
G01*
G37*
%TD*%
%TO.C,D2*%
G36*
G01*
X146377950Y-79699500D02*
X146890450Y-79699500D01*
G75*
G02*
X147109200Y-79918250I0J-218750D01*
G01*
X147109200Y-80355750D01*
G75*
G02*
X146890450Y-80574500I-218750J0D01*
G01*
X146377950Y-80574500D01*
G75*
G02*
X146159200Y-80355750I0J218750D01*
G01*
X146159200Y-79918250D01*
G75*
G02*
X146377950Y-79699500I218750J0D01*
G01*
G37*
G36*
G01*
X146377950Y-78124500D02*
X146890450Y-78124500D01*
G75*
G02*
X147109200Y-78343250I0J-218750D01*
G01*
X147109200Y-78780750D01*
G75*
G02*
X146890450Y-78999500I-218750J0D01*
G01*
X146377950Y-78999500D01*
G75*
G02*
X146159200Y-78780750I0J218750D01*
G01*
X146159200Y-78343250D01*
G75*
G02*
X146377950Y-78124500I218750J0D01*
G01*
G37*
%TD*%
%TO.C,D1*%
G36*
G01*
X144803150Y-79699500D02*
X145315650Y-79699500D01*
G75*
G02*
X145534400Y-79918250I0J-218750D01*
G01*
X145534400Y-80355750D01*
G75*
G02*
X145315650Y-80574500I-218750J0D01*
G01*
X144803150Y-80574500D01*
G75*
G02*
X144584400Y-80355750I0J218750D01*
G01*
X144584400Y-79918250D01*
G75*
G02*
X144803150Y-79699500I218750J0D01*
G01*
G37*
G36*
G01*
X144803150Y-78124500D02*
X145315650Y-78124500D01*
G75*
G02*
X145534400Y-78343250I0J-218750D01*
G01*
X145534400Y-78780750D01*
G75*
G02*
X145315650Y-78999500I-218750J0D01*
G01*
X144803150Y-78999500D01*
G75*
G02*
X144584400Y-78780750I0J218750D01*
G01*
X144584400Y-78343250D01*
G75*
G02*
X144803150Y-78124500I218750J0D01*
G01*
G37*
%TD*%
%TO.C,D6*%
G36*
G01*
X112679900Y-114526350D02*
X112679900Y-115038850D01*
G75*
G02*
X112461150Y-115257600I-218750J0D01*
G01*
X112023650Y-115257600D01*
G75*
G02*
X111804900Y-115038850I0J218750D01*
G01*
X111804900Y-114526350D01*
G75*
G02*
X112023650Y-114307600I218750J0D01*
G01*
X112461150Y-114307600D01*
G75*
G02*
X112679900Y-114526350I0J-218750D01*
G01*
G37*
G36*
G01*
X114254900Y-114526350D02*
X114254900Y-115038850D01*
G75*
G02*
X114036150Y-115257600I-218750J0D01*
G01*
X113598650Y-115257600D01*
G75*
G02*
X113379900Y-115038850I0J218750D01*
G01*
X113379900Y-114526350D01*
G75*
G02*
X113598650Y-114307600I218750J0D01*
G01*
X114036150Y-114307600D01*
G75*
G02*
X114254900Y-114526350I0J-218750D01*
G01*
G37*
%TD*%
%TO.C,D4*%
G36*
G01*
X112730800Y-100632550D02*
X112730800Y-101145050D01*
G75*
G02*
X112512050Y-101363800I-218750J0D01*
G01*
X112074550Y-101363800D01*
G75*
G02*
X111855800Y-101145050I0J218750D01*
G01*
X111855800Y-100632550D01*
G75*
G02*
X112074550Y-100413800I218750J0D01*
G01*
X112512050Y-100413800D01*
G75*
G02*
X112730800Y-100632550I0J-218750D01*
G01*
G37*
G36*
G01*
X114305800Y-100632550D02*
X114305800Y-101145050D01*
G75*
G02*
X114087050Y-101363800I-218750J0D01*
G01*
X113649550Y-101363800D01*
G75*
G02*
X113430800Y-101145050I0J218750D01*
G01*
X113430800Y-100632550D01*
G75*
G02*
X113649550Y-100413800I218750J0D01*
G01*
X114087050Y-100413800D01*
G75*
G02*
X114305800Y-100632550I0J-218750D01*
G01*
G37*
%TD*%
%TO.C,C2*%
G36*
G01*
X111645800Y-113451401D02*
X111645800Y-112151399D01*
G75*
G02*
X111895799Y-111901400I249999J0D01*
G01*
X112545801Y-111901400D01*
G75*
G02*
X112795800Y-112151399I0J-249999D01*
G01*
X112795800Y-113451401D01*
G75*
G02*
X112545801Y-113701400I-249999J0D01*
G01*
X111895799Y-113701400D01*
G75*
G02*
X111645800Y-113451401I0J249999D01*
G01*
G37*
G36*
G01*
X108695800Y-113451401D02*
X108695800Y-112151399D01*
G75*
G02*
X108945799Y-111901400I249999J0D01*
G01*
X109595801Y-111901400D01*
G75*
G02*
X109845800Y-112151399I0J-249999D01*
G01*
X109845800Y-113451401D01*
G75*
G02*
X109595801Y-113701400I-249999J0D01*
G01*
X108945799Y-113701400D01*
G75*
G02*
X108695800Y-113451401I0J249999D01*
G01*
G37*
%TD*%
%TO.C,C1*%
G36*
G01*
X111696600Y-103520001D02*
X111696600Y-102219999D01*
G75*
G02*
X111946599Y-101970000I249999J0D01*
G01*
X112596601Y-101970000D01*
G75*
G02*
X112846600Y-102219999I0J-249999D01*
G01*
X112846600Y-103520001D01*
G75*
G02*
X112596601Y-103770000I-249999J0D01*
G01*
X111946599Y-103770000D01*
G75*
G02*
X111696600Y-103520001I0J249999D01*
G01*
G37*
G36*
G01*
X108746600Y-103520001D02*
X108746600Y-102219999D01*
G75*
G02*
X108996599Y-101970000I249999J0D01*
G01*
X109646601Y-101970000D01*
G75*
G02*
X109896600Y-102219999I0J-249999D01*
G01*
X109896600Y-103520001D01*
G75*
G02*
X109646601Y-103770000I-249999J0D01*
G01*
X108996599Y-103770000D01*
G75*
G02*
X108746600Y-103520001I0J249999D01*
G01*
G37*
%TD*%
%TO.C,C31*%
G36*
G01*
X143187000Y-113965800D02*
X143187000Y-113465800D01*
G75*
G02*
X143412000Y-113240800I225000J0D01*
G01*
X143862000Y-113240800D01*
G75*
G02*
X144087000Y-113465800I0J-225000D01*
G01*
X144087000Y-113965800D01*
G75*
G02*
X143862000Y-114190800I-225000J0D01*
G01*
X143412000Y-114190800D01*
G75*
G02*
X143187000Y-113965800I0J225000D01*
G01*
G37*
G36*
G01*
X141637000Y-113965800D02*
X141637000Y-113465800D01*
G75*
G02*
X141862000Y-113240800I225000J0D01*
G01*
X142312000Y-113240800D01*
G75*
G02*
X142537000Y-113465800I0J-225000D01*
G01*
X142537000Y-113965800D01*
G75*
G02*
X142312000Y-114190800I-225000J0D01*
G01*
X141862000Y-114190800D01*
G75*
G02*
X141637000Y-113965800I0J225000D01*
G01*
G37*
%TD*%
%TO.C,C30*%
G36*
G01*
X156116200Y-104821800D02*
X156116200Y-104321800D01*
G75*
G02*
X156341200Y-104096800I225000J0D01*
G01*
X156791200Y-104096800D01*
G75*
G02*
X157016200Y-104321800I0J-225000D01*
G01*
X157016200Y-104821800D01*
G75*
G02*
X156791200Y-105046800I-225000J0D01*
G01*
X156341200Y-105046800D01*
G75*
G02*
X156116200Y-104821800I0J225000D01*
G01*
G37*
G36*
G01*
X154566200Y-104821800D02*
X154566200Y-104321800D01*
G75*
G02*
X154791200Y-104096800I225000J0D01*
G01*
X155241200Y-104096800D01*
G75*
G02*
X155466200Y-104321800I0J-225000D01*
G01*
X155466200Y-104821800D01*
G75*
G02*
X155241200Y-105046800I-225000J0D01*
G01*
X154791200Y-105046800D01*
G75*
G02*
X154566200Y-104821800I0J225000D01*
G01*
G37*
%TD*%
%TO.C,C29*%
G36*
G01*
X163837800Y-92121800D02*
X163837800Y-91621800D01*
G75*
G02*
X164062800Y-91396800I225000J0D01*
G01*
X164512800Y-91396800D01*
G75*
G02*
X164737800Y-91621800I0J-225000D01*
G01*
X164737800Y-92121800D01*
G75*
G02*
X164512800Y-92346800I-225000J0D01*
G01*
X164062800Y-92346800D01*
G75*
G02*
X163837800Y-92121800I0J225000D01*
G01*
G37*
G36*
G01*
X162287800Y-92121800D02*
X162287800Y-91621800D01*
G75*
G02*
X162512800Y-91396800I225000J0D01*
G01*
X162962800Y-91396800D01*
G75*
G02*
X163187800Y-91621800I0J-225000D01*
G01*
X163187800Y-92121800D01*
G75*
G02*
X162962800Y-92346800I-225000J0D01*
G01*
X162512800Y-92346800D01*
G75*
G02*
X162287800Y-92121800I0J225000D01*
G01*
G37*
%TD*%
%TO.C,C28*%
G36*
G01*
X167886200Y-105795000D02*
X167886200Y-106295000D01*
G75*
G02*
X167661200Y-106520000I-225000J0D01*
G01*
X167211200Y-106520000D01*
G75*
G02*
X166986200Y-106295000I0J225000D01*
G01*
X166986200Y-105795000D01*
G75*
G02*
X167211200Y-105570000I225000J0D01*
G01*
X167661200Y-105570000D01*
G75*
G02*
X167886200Y-105795000I0J-225000D01*
G01*
G37*
G36*
G01*
X169436200Y-105795000D02*
X169436200Y-106295000D01*
G75*
G02*
X169211200Y-106520000I-225000J0D01*
G01*
X168761200Y-106520000D01*
G75*
G02*
X168536200Y-106295000I0J225000D01*
G01*
X168536200Y-105795000D01*
G75*
G02*
X168761200Y-105570000I225000J0D01*
G01*
X169211200Y-105570000D01*
G75*
G02*
X169436200Y-105795000I0J-225000D01*
G01*
G37*
%TD*%
%TO.C,C27*%
G36*
G01*
X134982800Y-91486800D02*
X134982800Y-90986800D01*
G75*
G02*
X135207800Y-90761800I225000J0D01*
G01*
X135657800Y-90761800D01*
G75*
G02*
X135882800Y-90986800I0J-225000D01*
G01*
X135882800Y-91486800D01*
G75*
G02*
X135657800Y-91711800I-225000J0D01*
G01*
X135207800Y-91711800D01*
G75*
G02*
X134982800Y-91486800I0J225000D01*
G01*
G37*
G36*
G01*
X133432800Y-91486800D02*
X133432800Y-90986800D01*
G75*
G02*
X133657800Y-90761800I225000J0D01*
G01*
X134107800Y-90761800D01*
G75*
G02*
X134332800Y-90986800I0J-225000D01*
G01*
X134332800Y-91486800D01*
G75*
G02*
X134107800Y-91711800I-225000J0D01*
G01*
X133657800Y-91711800D01*
G75*
G02*
X133432800Y-91486800I0J225000D01*
G01*
G37*
%TD*%
%TO.C,C26*%
G36*
G01*
X132976200Y-104974200D02*
X132976200Y-104474200D01*
G75*
G02*
X133201200Y-104249200I225000J0D01*
G01*
X133651200Y-104249200D01*
G75*
G02*
X133876200Y-104474200I0J-225000D01*
G01*
X133876200Y-104974200D01*
G75*
G02*
X133651200Y-105199200I-225000J0D01*
G01*
X133201200Y-105199200D01*
G75*
G02*
X132976200Y-104974200I0J225000D01*
G01*
G37*
G36*
G01*
X131426200Y-104974200D02*
X131426200Y-104474200D01*
G75*
G02*
X131651200Y-104249200I225000J0D01*
G01*
X132101200Y-104249200D01*
G75*
G02*
X132326200Y-104474200I0J-225000D01*
G01*
X132326200Y-104974200D01*
G75*
G02*
X132101200Y-105199200I-225000J0D01*
G01*
X131651200Y-105199200D01*
G75*
G02*
X131426200Y-104974200I0J225000D01*
G01*
G37*
%TD*%
%TO.C,C25*%
G36*
G01*
X140737400Y-109543000D02*
X140237400Y-109543000D01*
G75*
G02*
X140012400Y-109318000I0J225000D01*
G01*
X140012400Y-108868000D01*
G75*
G02*
X140237400Y-108643000I225000J0D01*
G01*
X140737400Y-108643000D01*
G75*
G02*
X140962400Y-108868000I0J-225000D01*
G01*
X140962400Y-109318000D01*
G75*
G02*
X140737400Y-109543000I-225000J0D01*
G01*
G37*
G36*
G01*
X140737400Y-111093000D02*
X140237400Y-111093000D01*
G75*
G02*
X140012400Y-110868000I0J225000D01*
G01*
X140012400Y-110418000D01*
G75*
G02*
X140237400Y-110193000I225000J0D01*
G01*
X140737400Y-110193000D01*
G75*
G02*
X140962400Y-110418000I0J-225000D01*
G01*
X140962400Y-110868000D01*
G75*
G02*
X140737400Y-111093000I-225000J0D01*
G01*
G37*
%TD*%
%TO.C,C24*%
G36*
G01*
X133002200Y-97862200D02*
X133002200Y-97362200D01*
G75*
G02*
X133227200Y-97137200I225000J0D01*
G01*
X133677200Y-97137200D01*
G75*
G02*
X133902200Y-97362200I0J-225000D01*
G01*
X133902200Y-97862200D01*
G75*
G02*
X133677200Y-98087200I-225000J0D01*
G01*
X133227200Y-98087200D01*
G75*
G02*
X133002200Y-97862200I0J225000D01*
G01*
G37*
G36*
G01*
X131452200Y-97862200D02*
X131452200Y-97362200D01*
G75*
G02*
X131677200Y-97137200I225000J0D01*
G01*
X132127200Y-97137200D01*
G75*
G02*
X132352200Y-97362200I0J-225000D01*
G01*
X132352200Y-97862200D01*
G75*
G02*
X132127200Y-98087200I-225000J0D01*
G01*
X131677200Y-98087200D01*
G75*
G02*
X131452200Y-97862200I0J225000D01*
G01*
G37*
%TD*%
%TO.C,C23*%
G36*
G01*
X139086400Y-109530000D02*
X138586400Y-109530000D01*
G75*
G02*
X138361400Y-109305000I0J225000D01*
G01*
X138361400Y-108855000D01*
G75*
G02*
X138586400Y-108630000I225000J0D01*
G01*
X139086400Y-108630000D01*
G75*
G02*
X139311400Y-108855000I0J-225000D01*
G01*
X139311400Y-109305000D01*
G75*
G02*
X139086400Y-109530000I-225000J0D01*
G01*
G37*
G36*
G01*
X139086400Y-111080000D02*
X138586400Y-111080000D01*
G75*
G02*
X138361400Y-110855000I0J225000D01*
G01*
X138361400Y-110405000D01*
G75*
G02*
X138586400Y-110180000I225000J0D01*
G01*
X139086400Y-110180000D01*
G75*
G02*
X139311400Y-110405000I0J-225000D01*
G01*
X139311400Y-110855000D01*
G75*
G02*
X139086400Y-111080000I-225000J0D01*
G01*
G37*
%TD*%
%TO.C,C22*%
G36*
G01*
X133077800Y-93010800D02*
X133077800Y-92510800D01*
G75*
G02*
X133302800Y-92285800I225000J0D01*
G01*
X133752800Y-92285800D01*
G75*
G02*
X133977800Y-92510800I0J-225000D01*
G01*
X133977800Y-93010800D01*
G75*
G02*
X133752800Y-93235800I-225000J0D01*
G01*
X133302800Y-93235800D01*
G75*
G02*
X133077800Y-93010800I0J225000D01*
G01*
G37*
G36*
G01*
X131527800Y-93010800D02*
X131527800Y-92510800D01*
G75*
G02*
X131752800Y-92285800I225000J0D01*
G01*
X132202800Y-92285800D01*
G75*
G02*
X132427800Y-92510800I0J-225000D01*
G01*
X132427800Y-93010800D01*
G75*
G02*
X132202800Y-93235800I-225000J0D01*
G01*
X131752800Y-93235800D01*
G75*
G02*
X131527800Y-93010800I0J225000D01*
G01*
G37*
%TD*%
%TO.C,C21*%
G36*
G01*
X133701600Y-106723600D02*
X133201600Y-106723600D01*
G75*
G02*
X132976600Y-106498600I0J225000D01*
G01*
X132976600Y-106048600D01*
G75*
G02*
X133201600Y-105823600I225000J0D01*
G01*
X133701600Y-105823600D01*
G75*
G02*
X133926600Y-106048600I0J-225000D01*
G01*
X133926600Y-106498600D01*
G75*
G02*
X133701600Y-106723600I-225000J0D01*
G01*
G37*
G36*
G01*
X133701600Y-108273600D02*
X133201600Y-108273600D01*
G75*
G02*
X132976600Y-108048600I0J225000D01*
G01*
X132976600Y-107598600D01*
G75*
G02*
X133201600Y-107373600I225000J0D01*
G01*
X133701600Y-107373600D01*
G75*
G02*
X133926600Y-107598600I0J-225000D01*
G01*
X133926600Y-108048600D01*
G75*
G02*
X133701600Y-108273600I-225000J0D01*
G01*
G37*
%TD*%
%TO.C,C20*%
G36*
G01*
X151148200Y-90580400D02*
X151148200Y-91080400D01*
G75*
G02*
X150923200Y-91305400I-225000J0D01*
G01*
X150473200Y-91305400D01*
G75*
G02*
X150248200Y-91080400I0J225000D01*
G01*
X150248200Y-90580400D01*
G75*
G02*
X150473200Y-90355400I225000J0D01*
G01*
X150923200Y-90355400D01*
G75*
G02*
X151148200Y-90580400I0J-225000D01*
G01*
G37*
G36*
G01*
X152698200Y-90580400D02*
X152698200Y-91080400D01*
G75*
G02*
X152473200Y-91305400I-225000J0D01*
G01*
X152023200Y-91305400D01*
G75*
G02*
X151798200Y-91080400I0J225000D01*
G01*
X151798200Y-90580400D01*
G75*
G02*
X152023200Y-90355400I225000J0D01*
G01*
X152473200Y-90355400D01*
G75*
G02*
X152698200Y-90580400I0J-225000D01*
G01*
G37*
%TD*%
%TO.C,C19*%
G36*
G01*
X147111600Y-89962800D02*
X147111600Y-89462800D01*
G75*
G02*
X147336600Y-89237800I225000J0D01*
G01*
X147786600Y-89237800D01*
G75*
G02*
X148011600Y-89462800I0J-225000D01*
G01*
X148011600Y-89962800D01*
G75*
G02*
X147786600Y-90187800I-225000J0D01*
G01*
X147336600Y-90187800D01*
G75*
G02*
X147111600Y-89962800I0J225000D01*
G01*
G37*
G36*
G01*
X145561600Y-89962800D02*
X145561600Y-89462800D01*
G75*
G02*
X145786600Y-89237800I225000J0D01*
G01*
X146236600Y-89237800D01*
G75*
G02*
X146461600Y-89462800I0J-225000D01*
G01*
X146461600Y-89962800D01*
G75*
G02*
X146236600Y-90187800I-225000J0D01*
G01*
X145786600Y-90187800D01*
G75*
G02*
X145561600Y-89962800I0J225000D01*
G01*
G37*
%TD*%
%TO.C,C18*%
G36*
G01*
X161362200Y-90365400D02*
X160862200Y-90365400D01*
G75*
G02*
X160637200Y-90140400I0J225000D01*
G01*
X160637200Y-89690400D01*
G75*
G02*
X160862200Y-89465400I225000J0D01*
G01*
X161362200Y-89465400D01*
G75*
G02*
X161587200Y-89690400I0J-225000D01*
G01*
X161587200Y-90140400D01*
G75*
G02*
X161362200Y-90365400I-225000J0D01*
G01*
G37*
G36*
G01*
X161362200Y-91915400D02*
X160862200Y-91915400D01*
G75*
G02*
X160637200Y-91690400I0J225000D01*
G01*
X160637200Y-91240400D01*
G75*
G02*
X160862200Y-91015400I225000J0D01*
G01*
X161362200Y-91015400D01*
G75*
G02*
X161587200Y-91240400I0J-225000D01*
G01*
X161587200Y-91690400D01*
G75*
G02*
X161362200Y-91915400I-225000J0D01*
G01*
G37*
%TD*%
%TO.C,C17*%
G36*
G01*
X159838200Y-90365400D02*
X159338200Y-90365400D01*
G75*
G02*
X159113200Y-90140400I0J225000D01*
G01*
X159113200Y-89690400D01*
G75*
G02*
X159338200Y-89465400I225000J0D01*
G01*
X159838200Y-89465400D01*
G75*
G02*
X160063200Y-89690400I0J-225000D01*
G01*
X160063200Y-90140400D01*
G75*
G02*
X159838200Y-90365400I-225000J0D01*
G01*
G37*
G36*
G01*
X159838200Y-91915400D02*
X159338200Y-91915400D01*
G75*
G02*
X159113200Y-91690400I0J225000D01*
G01*
X159113200Y-91240400D01*
G75*
G02*
X159338200Y-91015400I225000J0D01*
G01*
X159838200Y-91015400D01*
G75*
G02*
X160063200Y-91240400I0J-225000D01*
G01*
X160063200Y-91690400D01*
G75*
G02*
X159838200Y-91915400I-225000J0D01*
G01*
G37*
%TD*%
%TO.C,C14*%
G36*
G01*
X172103800Y-99241800D02*
X172103800Y-99741800D01*
G75*
G02*
X171878800Y-99966800I-225000J0D01*
G01*
X171428800Y-99966800D01*
G75*
G02*
X171203800Y-99741800I0J225000D01*
G01*
X171203800Y-99241800D01*
G75*
G02*
X171428800Y-99016800I225000J0D01*
G01*
X171878800Y-99016800D01*
G75*
G02*
X172103800Y-99241800I0J-225000D01*
G01*
G37*
G36*
G01*
X170553800Y-99241800D02*
X170553800Y-99741800D01*
G75*
G02*
X170328800Y-99966800I-225000J0D01*
G01*
X169878800Y-99966800D01*
G75*
G02*
X169653800Y-99741800I0J225000D01*
G01*
X169653800Y-99241800D01*
G75*
G02*
X169878800Y-99016800I225000J0D01*
G01*
X170328800Y-99016800D01*
G75*
G02*
X170553800Y-99241800I0J-225000D01*
G01*
G37*
%TD*%
%TO.C,C10*%
G36*
G01*
X171623800Y-94404600D02*
X171123800Y-94404600D01*
G75*
G02*
X170898800Y-94179600I0J225000D01*
G01*
X170898800Y-93729600D01*
G75*
G02*
X171123800Y-93504600I225000J0D01*
G01*
X171623800Y-93504600D01*
G75*
G02*
X171848800Y-93729600I0J-225000D01*
G01*
X171848800Y-94179600D01*
G75*
G02*
X171623800Y-94404600I-225000J0D01*
G01*
G37*
G36*
G01*
X171623800Y-92854600D02*
X171123800Y-92854600D01*
G75*
G02*
X170898800Y-92629600I0J225000D01*
G01*
X170898800Y-92179600D01*
G75*
G02*
X171123800Y-91954600I225000J0D01*
G01*
X171623800Y-91954600D01*
G75*
G02*
X171848800Y-92179600I0J-225000D01*
G01*
X171848800Y-92629600D01*
G75*
G02*
X171623800Y-92854600I-225000J0D01*
G01*
G37*
%TD*%
%TO.C,C9*%
G36*
G01*
X167951400Y-95982600D02*
X167951400Y-95482600D01*
G75*
G02*
X168176400Y-95257600I225000J0D01*
G01*
X168626400Y-95257600D01*
G75*
G02*
X168851400Y-95482600I0J-225000D01*
G01*
X168851400Y-95982600D01*
G75*
G02*
X168626400Y-96207600I-225000J0D01*
G01*
X168176400Y-96207600D01*
G75*
G02*
X167951400Y-95982600I0J225000D01*
G01*
G37*
G36*
G01*
X169501400Y-95982600D02*
X169501400Y-95482600D01*
G75*
G02*
X169726400Y-95257600I225000J0D01*
G01*
X170176400Y-95257600D01*
G75*
G02*
X170401400Y-95482600I0J-225000D01*
G01*
X170401400Y-95982600D01*
G75*
G02*
X170176400Y-96207600I-225000J0D01*
G01*
X169726400Y-96207600D01*
G75*
G02*
X169501400Y-95982600I0J225000D01*
G01*
G37*
%TD*%
%TO.C,C8*%
G36*
G01*
X167469400Y-103501000D02*
X167469400Y-103001000D01*
G75*
G02*
X167694400Y-102776000I225000J0D01*
G01*
X168144400Y-102776000D01*
G75*
G02*
X168369400Y-103001000I0J-225000D01*
G01*
X168369400Y-103501000D01*
G75*
G02*
X168144400Y-103726000I-225000J0D01*
G01*
X167694400Y-103726000D01*
G75*
G02*
X167469400Y-103501000I0J225000D01*
G01*
G37*
G36*
G01*
X169019400Y-103501000D02*
X169019400Y-103001000D01*
G75*
G02*
X169244400Y-102776000I225000J0D01*
G01*
X169694400Y-102776000D01*
G75*
G02*
X169919400Y-103001000I0J-225000D01*
G01*
X169919400Y-103501000D01*
G75*
G02*
X169694400Y-103726000I-225000J0D01*
G01*
X169244400Y-103726000D01*
G75*
G02*
X169019400Y-103501000I0J225000D01*
G01*
G37*
%TD*%
%TO.C,C7*%
G36*
G01*
X157271600Y-90496200D02*
X157271600Y-89996200D01*
G75*
G02*
X157496600Y-89771200I225000J0D01*
G01*
X157946600Y-89771200D01*
G75*
G02*
X158171600Y-89996200I0J-225000D01*
G01*
X158171600Y-90496200D01*
G75*
G02*
X157946600Y-90721200I-225000J0D01*
G01*
X157496600Y-90721200D01*
G75*
G02*
X157271600Y-90496200I0J225000D01*
G01*
G37*
G36*
G01*
X155721600Y-90496200D02*
X155721600Y-89996200D01*
G75*
G02*
X155946600Y-89771200I225000J0D01*
G01*
X156396600Y-89771200D01*
G75*
G02*
X156621600Y-89996200I0J-225000D01*
G01*
X156621600Y-90496200D01*
G75*
G02*
X156396600Y-90721200I-225000J0D01*
G01*
X155946600Y-90721200D01*
G75*
G02*
X155721600Y-90496200I0J225000D01*
G01*
G37*
%TD*%
%TO.C,C6*%
G36*
G01*
X140940600Y-88739800D02*
X140440600Y-88739800D01*
G75*
G02*
X140215600Y-88514800I0J225000D01*
G01*
X140215600Y-88064800D01*
G75*
G02*
X140440600Y-87839800I225000J0D01*
G01*
X140940600Y-87839800D01*
G75*
G02*
X141165600Y-88064800I0J-225000D01*
G01*
X141165600Y-88514800D01*
G75*
G02*
X140940600Y-88739800I-225000J0D01*
G01*
G37*
G36*
G01*
X140940600Y-90289800D02*
X140440600Y-90289800D01*
G75*
G02*
X140215600Y-90064800I0J225000D01*
G01*
X140215600Y-89614800D01*
G75*
G02*
X140440600Y-89389800I225000J0D01*
G01*
X140940600Y-89389800D01*
G75*
G02*
X141165600Y-89614800I0J-225000D01*
G01*
X141165600Y-90064800D01*
G75*
G02*
X140940600Y-90289800I-225000J0D01*
G01*
G37*
%TD*%
%TO.C,C5*%
G36*
G01*
X148953400Y-109800200D02*
X148953400Y-109300200D01*
G75*
G02*
X149178400Y-109075200I225000J0D01*
G01*
X149628400Y-109075200D01*
G75*
G02*
X149853400Y-109300200I0J-225000D01*
G01*
X149853400Y-109800200D01*
G75*
G02*
X149628400Y-110025200I-225000J0D01*
G01*
X149178400Y-110025200D01*
G75*
G02*
X148953400Y-109800200I0J225000D01*
G01*
G37*
G36*
G01*
X147403400Y-109800200D02*
X147403400Y-109300200D01*
G75*
G02*
X147628400Y-109075200I225000J0D01*
G01*
X148078400Y-109075200D01*
G75*
G02*
X148303400Y-109300200I0J-225000D01*
G01*
X148303400Y-109800200D01*
G75*
G02*
X148078400Y-110025200I-225000J0D01*
G01*
X147628400Y-110025200D01*
G75*
G02*
X147403400Y-109800200I0J225000D01*
G01*
G37*
%TD*%
%TO.C,C4*%
G36*
G01*
X135983800Y-89437400D02*
X135983800Y-89937400D01*
G75*
G02*
X135758800Y-90162400I-225000J0D01*
G01*
X135308800Y-90162400D01*
G75*
G02*
X135083800Y-89937400I0J225000D01*
G01*
X135083800Y-89437400D01*
G75*
G02*
X135308800Y-89212400I225000J0D01*
G01*
X135758800Y-89212400D01*
G75*
G02*
X135983800Y-89437400I0J-225000D01*
G01*
G37*
G36*
G01*
X137533800Y-89437400D02*
X137533800Y-89937400D01*
G75*
G02*
X137308800Y-90162400I-225000J0D01*
G01*
X136858800Y-90162400D01*
G75*
G02*
X136633800Y-89937400I0J225000D01*
G01*
X136633800Y-89437400D01*
G75*
G02*
X136858800Y-89212400I225000J0D01*
G01*
X137308800Y-89212400D01*
G75*
G02*
X137533800Y-89437400I0J-225000D01*
G01*
G37*
%TD*%
%TO.C,C3*%
G36*
G01*
X153830200Y-93696600D02*
X153830200Y-93196600D01*
G75*
G02*
X154055200Y-92971600I225000J0D01*
G01*
X154505200Y-92971600D01*
G75*
G02*
X154730200Y-93196600I0J-225000D01*
G01*
X154730200Y-93696600D01*
G75*
G02*
X154505200Y-93921600I-225000J0D01*
G01*
X154055200Y-93921600D01*
G75*
G02*
X153830200Y-93696600I0J225000D01*
G01*
G37*
G36*
G01*
X152280200Y-93696600D02*
X152280200Y-93196600D01*
G75*
G02*
X152505200Y-92971600I225000J0D01*
G01*
X152955200Y-92971600D01*
G75*
G02*
X153180200Y-93196600I0J-225000D01*
G01*
X153180200Y-93696600D01*
G75*
G02*
X152955200Y-93921600I-225000J0D01*
G01*
X152505200Y-93921600D01*
G75*
G02*
X152280200Y-93696600I0J225000D01*
G01*
G37*
%TD*%
%TO.C,C11*%
G36*
G01*
X145461800Y-110406600D02*
X144961800Y-110406600D01*
G75*
G02*
X144736800Y-110181600I0J225000D01*
G01*
X144736800Y-109731600D01*
G75*
G02*
X144961800Y-109506600I225000J0D01*
G01*
X145461800Y-109506600D01*
G75*
G02*
X145686800Y-109731600I0J-225000D01*
G01*
X145686800Y-110181600D01*
G75*
G02*
X145461800Y-110406600I-225000J0D01*
G01*
G37*
G36*
G01*
X145461800Y-111956600D02*
X144961800Y-111956600D01*
G75*
G02*
X144736800Y-111731600I0J225000D01*
G01*
X144736800Y-111281600D01*
G75*
G02*
X144961800Y-111056600I225000J0D01*
G01*
X145461800Y-111056600D01*
G75*
G02*
X145686800Y-111281600I0J-225000D01*
G01*
X145686800Y-111731600D01*
G75*
G02*
X145461800Y-111956600I-225000J0D01*
G01*
G37*
%TD*%
M02*
