M48
; DRILL file {KiCad (5.1.7)-1} date 09/05/21 16:50:29
; FORMAT={-:-/ absolute / inch / decimal}
; #@! TF.CreationDate,2021-09-05T16:50:29-04:00
; #@! TF.GenerationSoftware,Kicad,Pcbnew,(5.1.7)-1
; #@! TF.FileFunction,Plated,1,4,PTH
FMAT,2
INCH
T1C0.0098
T2C0.0350
T3C0.0354
T4C0.0394
T5C0.0630
T6C0.1260
T7C0.1870
%
G90
G05
T1
X4.092Y-3.314
X4.097Y-4.578
X4.297Y-4.244
X4.347Y-4.244
X4.515Y-3.973
X4.515Y-4.519
X4.5546Y-4.1844
X4.5551Y-4.3041
X4.556Y-4.244
X4.595Y-4.187
X4.596Y-4.22
X4.598Y-4.305
X4.599Y-4.265
X4.893Y-4.393
X4.947Y-3.362
X5.119Y-4.127
X5.162Y-4.131
X5.215Y-3.677
X5.216Y-3.869
X5.235Y-3.596
X5.267Y-4.276
X5.275Y-4.155
X5.277Y-4.027
X5.307Y-3.534
X5.379Y-3.566
X5.469Y-4.394
X5.474Y-3.443
X5.535Y-4.397
X5.539Y-3.443
X5.573Y-4.16
X5.646Y-4.29
X5.675Y-3.094
X5.686Y-4.476
X5.719Y-4.425
X5.721Y-3.534
X5.7283Y-4.7127
X5.805Y-4.273
X5.912Y-4.313
X5.982Y-3.607
X5.985Y-3.493
X5.991Y-3.925
X6.0Y-4.136
X6.007Y-3.513
X6.026Y-4.33
X6.044Y-4.218
X6.109Y-3.676
X6.13Y-3.998
X6.143Y-4.207
X6.143Y-4.279
X6.194Y-4.094
X6.203Y-3.778
X6.207Y-4.197
X6.211Y-3.521
X6.221Y-4.017
X6.237Y-3.9105
X6.245Y-4.193
X6.255Y-3.779
X6.273Y-4.209
X6.281Y-3.51
X6.305Y-3.787
X6.313Y-3.623
X6.326Y-3.871
X6.33Y-3.923
X6.339Y-4.009
X6.343Y-3.509
X6.363Y-3.783
X6.376Y-3.873
X6.378Y-3.926
X6.392Y-3.661
X6.4267Y-3.8207
X6.456Y-3.664
X6.463Y-3.955
X6.505Y-3.618
X6.545Y-4.037
X6.547Y-3.753
X6.562Y-4.173
X6.579Y-4.069
X6.639Y-3.735
X6.661Y-3.849
X6.661Y-3.951
X6.683Y-3.729
X6.702Y-3.886
X6.703Y-4.065
X6.721Y-3.769
X6.744Y-3.6
X6.747Y-3.883
X6.749Y-3.736
X6.783Y-3.867
X6.785Y-3.968
X6.804Y-3.18
X6.806Y-3.719
X6.809Y-4.106
X6.918Y-4.747
X7.315Y-4.306
X7.385Y-3.473
X7.463Y-4.235
T2
X7.4097Y-3.643
X7.4097Y-4.041
X7.4695Y-3.743
X7.4695Y-4.141
T3
X6.927Y-3.717
X6.927Y-3.817
X6.927Y-3.917
X6.927Y-4.017
X7.027Y-3.767
X7.027Y-3.867
X7.027Y-3.967
X7.027Y-4.067
T4
X4.986Y-3.849
X4.986Y-3.949
X4.986Y-4.049
X5.086Y-3.849
X5.086Y-3.949
X5.086Y-4.049
T5
X7.1565Y-3.5859
X7.1565Y-4.1981
T6
X3.941Y-4.825
X3.941Y-3.092
X7.557Y-3.092
X7.556Y-4.824
T7
X4.416Y-3.3635
X4.416Y-3.658
T0
M30
